<?xml version="1.0" encoding="UTF-8" standalone="no"?>
<!DOCTYPE svg PUBLIC "-//W3C//DTD SVG 1.1//EN" "http://www.w3.org/Graphics/SVG/1.1/DTD/svg11.dtd">
<svg width="100%" height="100%" viewBox="0 0 1037 1008" version="1.1" xmlns="http://www.w3.org/2000/svg" xmlns:xlink="http://www.w3.org/1999/xlink" xml:space="preserve" xmlns:serif="http://www.serif.com/" style="fill-rule:evenodd;clip-rule:evenodd;stroke-linecap:round;stroke-linejoin:round;stroke-miterlimit:1.5;">
    <g transform="matrix(1,0,0,1,-297.916,-98.1546)">
        <g>
            <path d="M318.75,590.719L473.834,322.257C473.834,322.257 463.113,152.866 473.834,118.988L538.161,118.988C538.161,118.988 708.879,183.412 609.606,465.227L972.237,465.227C972.237,465.227 1125.76,487.985 1005.53,623.724C1005.53,623.724 1139.79,699.786 1005.53,779.52C1005.53,779.52 1134.63,848.603 1005.53,930.747L1256.43,930.747C1256.43,930.747 1315.27,956.799 1313.7,1003.21C1312.94,1025.65 1307.01,1057.8 1256.43,1084.63L506.248,1084.63C506.248,1084.63 343.416,1066.27 318.75,930.747L318.75,590.719Z" style="fill:none;stroke:rgb(38,136,140);stroke-width:41.67px;"/>
            <g transform="matrix(1,0,0,1.07731,11,-41.4064)">
                <path d="M1039.1,534.875C1039.1,499.573 1008.22,470.912 970.189,470.912L759.396,470.912C721.364,470.912 690.488,499.573 690.488,534.875L690.488,543.465C690.488,578.767 721.364,607.428 759.396,607.428L970.189,607.428C1008.22,607.428 1039.1,578.767 1039.1,543.465L1039.1,534.875Z" style="fill:none;stroke:rgb(38,136,140);stroke-width:40.09px;"/>
            </g>
            <g transform="matrix(1,0,0,1.07731,22.8562,121.854)">
                <path d="M1039.1,534.875C1039.1,499.573 1008.22,470.912 970.189,470.912L759.396,470.912C721.364,470.912 690.488,499.573 690.488,534.875L690.488,543.465C690.488,578.767 721.364,607.428 759.396,607.428L970.189,607.428C1008.22,607.428 1039.1,578.767 1039.1,543.465L1039.1,534.875Z" style="fill:none;stroke:rgb(38,136,140);stroke-width:40.09px;"/>
            </g>
            <g transform="matrix(1,0,0,1.07731,23.0664,275.24)">
                <path d="M1039.1,534.875C1039.1,499.573 1008.22,470.912 970.189,470.912L759.396,470.912C721.364,470.912 690.488,499.573 690.488,534.875L690.488,543.465C690.488,578.767 721.364,607.428 759.396,607.428L970.189,607.428C1008.22,607.428 1039.1,578.767 1039.1,543.465L1039.1,534.875Z" style="fill:none;stroke:rgb(38,136,140);stroke-width:40.09px;"/>
            </g>
        </g>
    </g>
</svg>
