<?xml version="1.0" encoding="UTF-8" standalone="no"?>
<!DOCTYPE svg PUBLIC "-//W3C//DTD SVG 1.1//EN" "http://www.w3.org/Graphics/SVG/1.1/DTD/svg11.dtd">
<svg width="100%" height="100%" viewBox="0 0 1133 570" version="1.1" xmlns="http://www.w3.org/2000/svg" xmlns:xlink="http://www.w3.org/1999/xlink" xml:space="preserve" xmlns:serif="http://www.serif.com/" style="fill-rule:evenodd;clip-rule:evenodd;stroke-linejoin:round;stroke-miterlimit:2;">
    <g transform="matrix(1,0,0,1,-297.462,-362.863)">
        <g transform="matrix(1,0,0,1,-260.216,31.6587)">
            <g transform="matrix(1,0,0,1,75,0)">
                <path d="M663.521,900.353L637.871,900.353C606.703,900.353 584.247,891.966 570.502,875.191C556.758,858.417 549.885,827.302 549.885,781.848L549.885,750.68C549.885,710.204 544.582,682.012 533.977,666.103C523.371,650.194 506.271,642.24 482.678,642.24L482.678,589.318C506.271,589.318 523.371,581.364 533.977,565.455C544.582,549.546 549.885,521.353 549.885,480.878L549.885,449.385C549.885,404.147 556.758,373.141 570.502,356.366C584.247,339.591 606.703,331.204 637.871,331.204L663.521,331.204L663.521,373.736L653.78,373.736C633.651,373.736 619.636,378.065 611.735,386.723C603.835,395.381 599.885,416.052 599.885,448.735L599.885,469.514C599.885,514.319 594.69,547.327 584.301,568.539C573.911,589.751 556.271,605.443 531.379,615.616C556.271,626.006 573.911,641.807 584.301,663.018C594.69,684.23 599.885,717.239 599.885,762.043L599.885,782.822C599.885,815.506 603.835,836.177 611.735,844.835C619.636,853.493 633.651,857.821 653.78,857.821L663.521,857.821L663.521,900.353Z" style="fill:rgb(12,84,80);fill-rule:nonzero;"/>
            </g>
        </g>
        <g transform="matrix(1,0,0,1,-260.216,31.6587)">
            <g transform="matrix(1,0,0,1,0,55)">
                <path d="M1133.32,374.385L992.088,374.385L992.088,789.316L939.167,789.316L939.167,374.385L797.285,374.385L797.285,331.204L1133.32,331.204L1133.32,374.385Z" style="fill:rgb(12,84,80);fill-rule:nonzero;"/>
            </g>
        </g>
        <g transform="matrix(1,0,0,1,-260.216,31.6587)">
            <g transform="matrix(1,0,0,1,-46,55)">
                <path d="M1461.56,381.853C1434.29,372.546 1408.43,367.892 1383.97,367.892C1356.26,367.892 1333.7,374.223 1316.27,386.885C1298.85,399.547 1290.14,417.567 1290.14,440.943C1290.14,468.648 1312.97,492.999 1358.64,513.994C1392.41,529.578 1414.76,540.401 1425.69,546.461C1436.62,552.522 1447.71,560.855 1458.97,571.461C1470.22,582.067 1479.26,594.567 1486.08,608.961C1492.89,623.354 1496.3,639.534 1496.3,657.499C1496.3,702.087 1481.31,736.665 1451.34,761.232C1421.36,785.798 1386.02,798.082 1345.33,798.082C1305.94,798.082 1271.41,790.29 1241.76,774.706L1252.8,728.927C1287.65,744.728 1318.06,752.628 1344.03,752.628C1374.34,752.628 1398.63,744.782 1416.92,729.089C1435.21,713.397 1444.36,691.806 1444.36,664.317C1444.36,643.971 1438.4,626.709 1426.5,612.532C1414.59,598.355 1392.62,583.907 1360.59,569.188C1327.69,554.037 1306.42,543.702 1296.79,538.182C1287.16,532.663 1277.58,525.033 1268.06,515.293C1258.54,505.553 1251.18,494.622 1245.98,482.501C1240.79,470.38 1238.19,457.177 1238.19,442.891C1238.19,405.013 1251.83,375.468 1279.1,354.256C1306.37,333.044 1340.89,322.438 1382.67,322.438C1413.19,322.438 1443.49,327.092 1473.58,336.399L1461.56,381.853Z" style="fill:rgb(12,84,80);fill-rule:nonzero;"/>
            </g>
        </g>
        <g transform="matrix(1,0,0,1,-260.216,31.6587)">
            <g transform="matrix(1,0,0,1,-154,0)">
                <path d="M1844.68,642.24C1821.3,642.24 1804.25,650.194 1793.54,666.103C1782.83,682.012 1777.47,710.204 1777.47,750.68L1777.47,781.848C1777.47,827.302 1770.65,858.417 1757.02,875.191C1743.38,891.966 1720.98,900.353 1689.81,900.353L1663.83,900.353L1663.83,857.821L1673.9,857.821C1694.03,857.821 1708.04,853.493 1715.94,844.835C1723.84,836.177 1727.79,815.506 1727.79,782.822L1727.79,762.043C1727.79,717.239 1732.99,684.23 1743.38,663.018C1753.77,641.807 1771.41,626.006 1796.3,615.616C1771.41,605.443 1753.77,589.751 1743.38,568.539C1732.99,547.327 1727.79,514.319 1727.79,469.514L1727.79,448.735C1727.79,416.052 1723.84,395.381 1715.94,386.723C1708.04,378.065 1694.03,373.736 1673.9,373.736L1663.83,373.736L1663.83,331.204L1689.81,331.204C1720.98,331.204 1743.38,339.591 1757.02,356.366C1770.65,373.141 1777.47,404.147 1777.47,449.385L1777.47,480.878C1777.47,517.457 1782.23,544.676 1791.76,562.533C1801.28,580.39 1818.92,589.318 1844.68,589.318L1844.68,642.24Z" style="fill:rgb(12,84,80);fill-rule:nonzero;"/>
            </g>
        </g>
    </g>
</svg>
