<?xml version="1.0" encoding="UTF-8" standalone="no"?>
<!DOCTYPE svg PUBLIC "-//W3C//DTD SVG 1.1//EN" "http://www.w3.org/Graphics/SVG/1.1/DTD/svg11.dtd">
<svg width="100%" height="100%" viewBox="0 0 447 837" version="1.1" xmlns="http://www.w3.org/2000/svg" xmlns:xlink="http://www.w3.org/1999/xlink" xml:space="preserve" xmlns:serif="http://www.serif.com/" style="fill-rule:evenodd;clip-rule:evenodd;stroke-linejoin:round;stroke-miterlimit:2;">
    <g transform="matrix(1,0,0,1,-645.374,-209)">
        <path d="M1066.99,234C1066.99,234 830.112,458.212 691.455,589.455C663.503,615.912 663.192,652.078 691.455,678.203C830.022,806.292 1061.33,1020.11 1061.33,1020.11L1061.33,901.825L765.293,634.457L1066.99,352.615L1066.99,234Z" style="fill:rgb(12,84,80);"/>
        <path d="M1091.99,234C1091.99,224.014 1086.05,214.985 1076.88,211.037C1067.7,207.089 1057.06,208.979 1049.81,215.844C1049.81,215.844 812.927,440.056 674.269,571.298C654.701,589.82 645.429,612.029 645.374,633.891C645.32,655.904 654.562,678.145 674.485,696.561C813.052,824.65 1044.36,1038.46 1044.36,1038.46C1051.65,1045.21 1062.25,1046.99 1071.35,1043.01C1080.45,1039.03 1086.33,1030.04 1086.33,1020.11L1086.33,901.825C1086.33,894.753 1083.33,888.012 1078.08,883.272L802.248,634.146C802.248,634.146 1084.06,370.883 1084.06,370.883C1089.12,366.155 1091.99,359.54 1091.99,352.615L1091.99,234ZM1066.99,234C1066.99,234 830.112,458.212 691.455,589.455C663.503,615.912 663.192,652.078 691.455,678.203C830.022,806.292 1061.33,1020.11 1061.33,1020.11L1061.33,901.825L765.293,634.457L1066.99,352.615L1066.99,234Z" style="fill:rgb(12,84,80);"/>
    </g>
</svg>
