<?xml version="1.0" encoding="UTF-8" standalone="no"?>
<!DOCTYPE svg PUBLIC "-//W3C//DTD SVG 1.1//EN" "http://www.w3.org/Graphics/SVG/1.1/DTD/svg11.dtd">
<svg width="100%" height="100%" viewBox="0 0 447 837" version="1.1" xmlns="http://www.w3.org/2000/svg" xmlns:xlink="http://www.w3.org/1999/xlink" xml:space="preserve" xmlns:serif="http://www.serif.com/" style="fill-rule:evenodd;clip-rule:evenodd;stroke-linejoin:round;stroke-miterlimit:2;">
    <g transform="matrix(1,0,0,1,-645.374,-209)">
        <g transform="matrix(-1,0,0,1,1737.37,0)">
            <path d="M1066.99,234C1066.99,234 830.112,458.212 691.455,589.455C663.503,615.912 663.192,652.078 691.455,678.203C830.022,806.292 1061.33,1020.11 1061.33,1020.11L1061.33,901.825L765.293,634.457L1066.99,352.615L1066.99,234Z" style="fill:rgb(12,84,80);"/>
            <path d="M1049.81,215.844C1057.06,208.979 1067.7,207.089 1076.88,211.037C1086.05,214.985 1091.99,224.014 1091.99,234L1091.99,352.615C1091.99,359.54 1089.12,366.155 1084.06,370.883C1084.06,370.883 869.473,571.345 802.248,634.146C868.968,694.406 1078.08,883.272 1078.08,883.272C1083.33,888.012 1086.33,894.753 1086.33,901.825L1086.33,1020.11C1086.33,1030.04 1080.45,1039.03 1071.35,1043.01C1062.25,1046.99 1051.65,1045.21 1044.36,1038.46C1044.36,1038.46 813.052,824.65 674.485,696.561C654.562,678.145 645.32,655.904 645.374,633.891C645.429,612.029 654.701,589.82 674.269,571.298C812.927,440.056 1049.81,215.844 1049.81,215.844ZM1066.99,234C1066.99,234 830.112,458.212 691.455,589.455C663.503,615.912 663.192,652.078 691.455,678.203C830.022,806.292 1061.33,1020.11 1061.33,1020.11L1061.33,901.825L765.293,634.457L1066.99,352.615L1066.99,234Z" style="fill:rgb(12,84,80);"/>
        </g>
    </g>
</svg>
