<?xml version="1.0" encoding="UTF-8" standalone="no"?>
<!DOCTYPE svg PUBLIC "-//W3C//DTD SVG 1.1//EN" "http://www.w3.org/Graphics/SVG/1.1/DTD/svg11.dtd">
<svg width="100%" height="100%" viewBox="0 0 1722 1450" version="1.1" xmlns="http://www.w3.org/2000/svg" xmlns:xlink="http://www.w3.org/1999/xlink" xml:space="preserve" xmlns:serif="http://www.serif.com/" style="fill-rule:evenodd;clip-rule:evenodd;stroke-linecap:square;stroke-miterlimit:20;">
    <g transform="matrix(1,0,0,1,-36.1313,-23.0229)">
        <g transform="matrix(0.898338,0,0,0.898338,100.101,68.2506)">
            <g transform="matrix(1,0,0,1,-133.864,62.3037)">
                <path d="M712.814,850.984C712.814,680.861 850.932,542.743 1021.05,542.743C1191.18,542.743 1329.3,680.861 1329.3,850.984L712.814,850.984Z" style="fill:none;stroke:rgb(38,136,140);stroke-width:64.93px;"/>
            </g>
            <g transform="matrix(1,0,0,1,-42.6936,61.7054)">
                <circle cx="929.72" cy="313.22" r="113.496" style="fill:none;stroke:rgb(38,136,140);stroke-width:64.93px;stroke-linecap:round;stroke-linejoin:round;stroke-miterlimit:1.5;"/>
            </g>
        </g>
        <g transform="matrix(0.898338,0,0,0.898338,89.7027,33.3908)">
            <path d="M1329.22,273.094C1420.48,375.685 1475.94,510.802 1475.94,658.771C1475.94,979.266 1215.74,1239.47 895.242,1239.47" style="fill:none;stroke:rgb(38,136,140);stroke-width:64.93px;stroke-linejoin:round;stroke-miterlimit:1.5;"/>
        </g>
        <g transform="matrix(0.898338,0,0,0.898338,89.7027,33.3908)">
            <path d="M475.583,1059.97C375.844,955.683 314.546,814.329 314.546,658.771C314.546,338.276 574.747,78.075 895.242,78.075" style="fill:none;stroke:rgb(38,136,140);stroke-width:64.93px;stroke-linejoin:round;stroke-miterlimit:1.5;"/>
        </g>
        <g transform="matrix(0.898338,0,0,0.898338,-459.216,-141.401)">
            <circle cx="1586.05" cy="270.58" r="64.358" style="fill:none;stroke:rgb(38,136,140);stroke-width:46.38px;stroke-linecap:round;stroke-linejoin:round;stroke-miterlimit:1.5;"/>
        </g>
        <g transform="matrix(0.898338,0,0,0.898338,-603.873,902.281)">
            <circle cx="1586.05" cy="270.58" r="64.358" style="fill:none;stroke:rgb(38,136,140);stroke-width:46.38px;stroke-linecap:round;stroke-linejoin:round;stroke-miterlimit:1.5;"/>
        </g>
    </g>
</svg>
