<?xml version="1.0" encoding="UTF-8" standalone="no"?>
<!DOCTYPE svg PUBLIC "-//W3C//DTD SVG 1.1//EN" "http://www.w3.org/Graphics/SVG/1.1/DTD/svg11.dtd">
<svg width="100%" height="100%" viewBox="0 0 2253 492" version="1.1" xmlns="http://www.w3.org/2000/svg" xmlns:xlink="http://www.w3.org/1999/xlink" xml:space="preserve" xmlns:serif="http://www.serif.com/" style="fill-rule:evenodd;clip-rule:evenodd;stroke-linejoin:round;stroke-miterlimit:2;">
    <g transform="matrix(1,0,0,1,-647.999,-1003.89)">
        <g transform="matrix(1,0,0,1,428.914,186.266)">
            <g transform="matrix(1.23292,0,0,1.23292,-4894.64,-4842.93)">
                <g transform="matrix(400,0,0,400,4495.97,4901.17)">
                    <path d="M0.406,0.012C0.457,0.012 0.505,0.001 0.549,-0.022L0.529,-0.086C0.492,-0.066 0.451,-0.056 0.411,-0.056C0.336,-0.056 0.303,-0.092 0.303,-0.176L0.303,-0.71L0.031,-0.71L0.031,-0.644L0.231,-0.644L0.231,-0.165C0.231,-0.045 0.288,0.012 0.406,0.012Z" style="fill:rgb(38,136,140);fill-rule:nonzero;"/>
                </g>
                <g transform="matrix(400,0,0,400,4727.97,4901.17)">
                    <path d="M0.246,0.012C0.315,0.012 0.376,-0.008 0.431,-0.05L0.44,-0L0.494,-0L0.494,-0.305C0.494,-0.427 0.432,-0.482 0.291,-0.482C0.218,-0.482 0.153,-0.467 0.095,-0.436L0.118,-0.373C0.168,-0.4 0.226,-0.414 0.288,-0.414C0.385,-0.414 0.422,-0.38 0.422,-0.294L0.422,-0.274L0.242,-0.274C0.125,-0.274 0.066,-0.226 0.066,-0.137C0.066,-0.043 0.131,0.012 0.246,0.012ZM0.256,-0.056C0.179,-0.056 0.14,-0.084 0.14,-0.137C0.14,-0.185 0.172,-0.21 0.24,-0.21L0.422,-0.21L0.422,-0.11C0.374,-0.074 0.319,-0.056 0.256,-0.056Z" style="fill:rgb(38,136,140);fill-rule:nonzero;"/>
                </g>
                <g transform="matrix(400,0,0,400,4959.97,4901.17)">
                    <path d="M0.089,-0L0.161,-0L0.161,-0.361C0.207,-0.395 0.263,-0.414 0.317,-0.414C0.392,-0.414 0.425,-0.378 0.425,-0.294L0.425,-0L0.497,-0L0.497,-0.305C0.497,-0.423 0.439,-0.482 0.329,-0.482C0.264,-0.482 0.205,-0.461 0.151,-0.42L0.143,-0.47L0.089,-0.47L0.089,-0Z" style="fill:rgb(38,136,140);fill-rule:nonzero;"/>
                </g>
                <g transform="matrix(400,0,0,400,5191.97,4901.17)">
                    <path d="M0.275,0.222C0.424,0.222 0.499,0.148 0.499,0.023L0.499,-0.47L0.445,-0.47L0.437,-0.42C0.383,-0.461 0.324,-0.482 0.264,-0.482C0.138,-0.482 0.058,-0.384 0.058,-0.24C0.058,-0.096 0.138,0.002 0.264,0.002C0.32,0.002 0.376,-0.017 0.427,-0.053L0.427,0.014C0.427,0.108 0.377,0.154 0.273,0.154C0.214,0.154 0.16,0.14 0.111,0.113L0.085,0.176C0.143,0.207 0.208,0.222 0.275,0.222ZM0.276,-0.066C0.186,-0.066 0.132,-0.136 0.132,-0.24C0.132,-0.344 0.186,-0.414 0.276,-0.414C0.326,-0.414 0.383,-0.394 0.427,-0.361L0.427,-0.119C0.383,-0.086 0.326,-0.066 0.276,-0.066Z" style="fill:rgb(38,136,140);fill-rule:nonzero;"/>
                </g>
                <g transform="matrix(400,0,0,400,5368.45,4901.17)">
                    <path d="M0.254,-0L0.326,0L0.326,-0.066L0.326,-0.066L0.326,-0.47L0.254,-0.47L0.254,-0.404L0.254,-0.404L0.254,-0Z" style="fill:rgb(12,84,80);fill-rule:nonzero;"/>
                </g>
                <g transform="matrix(400,0,0,400,5531.04,4901.17)">
                    <path d="M0.251,0.012C0.316,0.012 0.375,-0.009 0.429,-0.05L0.437,-0L0.491,-0L0.491,-0.47L0.419,-0.47L0.419,-0.109C0.373,-0.075 0.317,-0.056 0.263,-0.056C0.188,-0.056 0.155,-0.092 0.155,-0.176L0.155,-0.47L0.083,-0.47L0.083,-0.165C0.083,-0.047 0.141,0.012 0.251,0.012Z" style="fill:rgb(12,84,80);fill-rule:nonzero;"/>
                </g>
                <g transform="matrix(400,0,0,400,5763.04,4901.17)">
                    <path d="M0.054,-0L0.123,-0L0.123,-0.38C0.148,-0.405 0.177,-0.418 0.207,-0.418C0.241,-0.418 0.257,-0.4 0.257,-0.363L0.257,-0L0.326,-0L0.326,-0.38C0.351,-0.405 0.38,-0.418 0.41,-0.418C0.444,-0.418 0.46,-0.4 0.46,-0.363L0.46,-0L0.529,-0L0.529,-0.371C0.529,-0.44 0.49,-0.482 0.427,-0.482C0.386,-0.482 0.347,-0.464 0.313,-0.431C0.297,-0.464 0.266,-0.482 0.224,-0.482C0.183,-0.482 0.144,-0.464 0.11,-0.431L0.103,-0.47L0.054,-0.47L0.054,-0Z" style="fill:rgb(12,84,80);fill-rule:nonzero;"/>
                </g>
            </g>
        </g>
        <g transform="matrix(1,0,0,1,428.914,186.266)">
            <g transform="matrix(0.186856,0,0,0.186856,76.613,772.563)">
                <g transform="matrix(2.85931,0,0,2.82818,-4192.98,-365.537)">
                    <g>
                        <g>
                            <g>
                                <g>
                                    <g transform="matrix(1,0,0,1,1132.4,-385.613)">
                                        <g>
                                            <path d="M1002.83,662.163L941.048,600.344L882.002,723.652L941.048,782.427L1254.92,781.631L1311.76,659.879L1002.83,662.163Z" style="fill:rgb(12,84,80);"/>
                                        </g>
                                    </g>
                                    <g transform="matrix(1,0,0,1,1132.4,-385.613)">
                                        <path d="M908.749,797.783C908.941,799.178 832.284,938.047 832.284,938.047C832.284,938.047 811.995,973.073 821.693,970.621C825.636,969.625 844.768,944.028 844.768,944.028L938.726,816.307L1239.26,814.323C1239.26,814.323 1152.04,999.908 1152.04,999.908C1035.57,943.365 954.551,1040.23 840.873,1124.71C791.269,1161.57 744.508,1199.09 705.891,1231.17C692.994,1242.91 681.098,1253.48 670.665,1262.63C676.794,1269.43 686.902,1278.95 683.857,1287.98C681.871,1293.88 681.018,1298.08 675.849,1302.84C662.352,1315.26 612.047,1342.8 602.373,1331.69C595.59,1323.9 610.819,1293.75 620.524,1276.43L866.381,755.732L908.749,797.783Z" style="fill:rgb(38,136,140);"/>
                                    </g>
                                </g>
                            </g>
                        </g>
                    </g>
                </g>
                <path d="M1522.23,681.652L1643.41,800.36C1643.41,800.36 1418.73,1204.7 1398.75,1247.71C1377.09,1294.34 1388.92,1288.81 1388.92,1288.81L819.336,2155.99L1522.23,681.652Z" style="fill:rgb(12,84,80);fill-opacity:0.3;"/>
                <path d="M1735.84,241.129L1912.56,416.885L1735.84,756.786L1566.78,590.32L1735.84,241.129Z" style="fill:rgb(8,57,55);fill-opacity:0.5;"/>
            </g>
        </g>
    </g>
</svg>
