<?xml version="1.0" encoding="UTF-8" standalone="no"?>
<!DOCTYPE svg PUBLIC "-//W3C//DTD SVG 1.1//EN" "http://www.w3.org/Graphics/SVG/1.1/DTD/svg11.dtd">
<svg width="100%" height="100%" viewBox="0 0 1089 1119" version="1.1" xmlns="http://www.w3.org/2000/svg" xmlns:xlink="http://www.w3.org/1999/xlink" xml:space="preserve" xmlns:serif="http://www.serif.com/" style="fill-rule:evenodd;clip-rule:evenodd;stroke-linecap:round;stroke-linejoin:round;stroke-miterlimit:1.5;">
    <g transform="matrix(1,0,0,1,-329.643,-82.9528)">
        <g transform="matrix(1.69712,0,0,1.69712,-463.007,-477.136)">
            <path d="M566.765,342.569L653.273,515.586L480.257,515.586L566.765,342.569Z" style="fill:none;stroke:rgb(12,84,80);stroke-width:24.55px;"/>
            <g transform="matrix(1,0,0,1.00752,442.335,-2.49888)">
                <path d="M566.765,342.569L653.273,515.586L480.257,515.586L566.765,342.569Z" style="fill:none;stroke:rgb(12,84,80);stroke-width:24.46px;"/>
            </g>
            <g transform="matrix(-1,-1.22465e-16,1.22465e-16,-1,1488.96,857.883)">
                <path d="M566.765,342.569L699.547,515.586L480.257,515.586L566.765,342.569Z" style="fill:none;stroke:rgb(12,84,80);stroke-width:24.55px;"/>
            </g>
            <g transform="matrix(-1,-1.22465e-16,1.22465e-16,-1,1220.67,858.063)">
                <path d="M566.765,342.569L653.273,515.586L431.155,515.586L566.765,342.569Z" style="fill:none;stroke:rgb(12,84,80);stroke-width:24.55px;"/>
            </g>
            <g transform="matrix(-1,-1.22465e-16,3.24198e-16,-2.64728,1356.81,1883.07)">
                <path d="M566.765,342.569L702.18,515.586L435.483,515.586L566.765,342.569Z" style="fill:none;stroke:rgb(12,84,80);stroke-width:12.27px;"/>
            </g>
            <g transform="matrix(-1,-1.22465e-16,3.22304e-16,-2.63181,1132.6,1875.22)">
                <path d="M342.356,341.378L653.273,515.586L480.257,515.586L342.356,341.378Z" style="fill:none;stroke:rgb(12,84,80);stroke-width:12.33px;"/>
            </g>
            <g transform="matrix(-1,-1.22465e-16,3.24198e-16,-2.64728,1576.35,1882.93)">
                <path d="M785.667,342.395L653.273,515.586L480.257,515.586L785.667,342.395Z" style="fill:none;stroke:rgb(12,84,80);stroke-width:12.27px;"/>
            </g>
            <g transform="matrix(1.54114,0,0,1.0055,-84.1501,-1.16487)">
                <path d="M566.765,342.569L653.273,515.586L478.959,515.586L566.765,342.569Z" style="fill:none;stroke:rgb(12,84,80);stroke-width:18.87px;"/>
            </g>
        </g>
    </g>
</svg>
