<?xml version="1.0" encoding="UTF-8" standalone="no"?>
<!DOCTYPE svg PUBLIC "-//W3C//DTD SVG 1.1//EN" "http://www.w3.org/Graphics/SVG/1.1/DTD/svg11.dtd">
<svg width="100%" height="100%" viewBox="0 0 1250 1250" version="1.1" xmlns="http://www.w3.org/2000/svg" xmlns:xlink="http://www.w3.org/1999/xlink" xml:space="preserve" xmlns:serif="http://www.serif.com/" style="fill-rule:evenodd;clip-rule:evenodd;stroke-linecap:round;stroke-linejoin:round;stroke-miterlimit:1.5;">
    <g transform="matrix(1,0,0,1,-5832,0)">
        <g id="DomainModel" transform="matrix(1,0,0,1,2915.67,0)">
            <rect x="2916.33" y="0" width="1250" height="1250" style="fill:none;"/>
            <clipPath id="_clip1">
                <rect x="2916.33" y="0" width="1250" height="1250"/>
            </clipPath>
            <g clip-path="url(#_clip1)">
                <g transform="matrix(1,0,0,1,2916.33,0)">
                    <path d="M1250,625C1250,629.689 1249.9,634.375 1249.71,638.964C1249.71,639.943 1249.71,641.014 1249.61,641.993C1249.51,648.339 1249.22,654.589 1248.83,660.936C1248.34,672.557 1247.36,684.179 1246,695.704C1245.51,700.489 1244.92,705.371 1244.24,710.157C1242.58,721.779 1240.72,733.3 1238.48,744.629C1238.48,744.825 1238.38,744.921 1238.38,745.118C1237.4,750.196 1236.33,755.275 1235.25,760.35C1234.18,764.943 1233.2,769.436 1232.03,774.025C1201.56,899.025 1133.4,1009.18 1040.43,1091.99C1021.49,1108.99 1001.37,1124.71 980.371,1139.26C914.161,1185.06 838.575,1218.46 757.129,1235.84C753.125,1236.72 749.121,1237.6 745.118,1238.38C737.5,1239.94 729.686,1241.31 721.875,1242.48C715.721,1243.46 709.375,1244.24 703.125,1245.02C690.918,1246.68 678.514,1247.85 666.018,1248.63C652.439,1249.51 638.771,1250 625,1250C612.5,1250 600.196,1249.61 587.989,1248.83C581.054,1248.44 574.121,1247.95 567.286,1247.36C566.893,1247.36 566.504,1247.26 566.114,1247.26C560.939,1246.68 555.664,1246.19 550.586,1245.51C549.414,1245.41 548.339,1245.21 547.168,1245.12C545.8,1245.02 544.336,1244.83 542.968,1244.63C539.65,1244.14 536.232,1243.65 532.911,1243.16C530.664,1242.87 528.514,1242.58 526.271,1242.19C505.761,1238.96 485.643,1234.67 465.918,1229.49C197.852,1159.18 0,915.236 0,625C0,279.785 279.785,0 625,0C915.918,0 1160.45,198.731 1229.98,467.871C1238.38,500.096 1244.14,533.3 1247.26,567.286C1248.24,577.15 1248.92,587.207 1249.32,597.264C1249.32,598.046 1249.41,598.732 1249.41,599.511C1249.51,601.954 1249.61,604.493 1249.61,607.032C1249.9,612.989 1250,619.043 1250,625Z" style="fill:rgb(38,136,140);fill-rule:nonzero;"/>
                </g>
                <g transform="matrix(1,0,0,1,2916.33,0)">
                    <rect x="-199.391" y="-70.73" width="1507.31" height="1392.1" style="fill:rgb(38,136,140);"/>
                </g>
                <g transform="matrix(1,0,0,1,2916.33,0)">
                    <path d="M1282.31,1272.92C1263.37,1289.91 526.949,1278.1 507.224,1272.92L246.539,1010.11C251.354,1013.58 257.269,1015.62 263.671,1015.62L986.328,1015.62C1002.54,1015.62 1015.62,1002.53 1015.62,986.324L1015.62,375.677L234.374,375.677L234.374,986.324L234.374,263.667L234.374,375.652L1015.62,375.652L1015.62,263.667C1015.62,258.85 1014.47,254.31 1012.42,250.306L1282.31,521.971C1290.71,554.196 1375.28,1190.11 1282.31,1272.92ZM234.38,986.552L234.38,986.545L234.38,986.552ZM234.38,986.488C234.379,986.474 234.379,986.459 234.379,986.449C234.379,986.459 234.379,986.474 234.38,986.488ZM234.379,986.409L234.379,986.324L234.379,986.409ZM234.41,262.305C235.118,246.729 247.921,234.37 263.676,234.37L986.415,234.37L263.676,234.37C247.922,234.37 235.118,246.728 234.41,262.305ZM986.572,234.371L986.547,234.371L986.572,234.371ZM986.508,234.371C986.483,234.37 986.461,234.37 986.436,234.37C986.461,234.37 986.483,234.37 986.508,234.371Z" style="fill:rgb(12,84,80);fill-rule:nonzero;"/>
                </g>
                <g transform="matrix(1,0,0,1,2916.33,0)">
                    <path d="M1015.62,375.657L1015.62,263.672C1015.62,247.461 1002.53,234.375 986.324,234.375L263.667,234.375C247.457,234.375 234.37,247.461 234.37,263.672L234.37,375.657L1015.62,375.657Z" style="fill:rgb(106,131,132);fill-rule:nonzero;"/>
                </g>
                <g transform="matrix(1,0,0,1,2916.33,0)">
                    <path d="M1015.62,375.682L1015.62,986.329C1015.62,1002.54 1002.53,1015.62 986.324,1015.62L263.667,1015.62C247.457,1015.62 234.37,1002.54 234.37,986.329L234.37,375.682L1015.62,375.682Z" style="fill:rgb(249,250,250);fill-rule:nonzero;"/>
                    <clipPath id="_clip2">
                        <path d="M1015.62,375.682L1015.62,986.329C1015.62,1002.54 1002.53,1015.62 986.324,1015.62L263.667,1015.62C247.457,1015.62 234.37,1002.54 234.37,986.329L234.37,375.682L1015.62,375.682Z" clip-rule="nonzero"/>
                    </clipPath>
                    <g clip-path="url(#_clip2)">
                        <g transform="matrix(1.16612,0,0,1.16612,-3388.05,-160.01)">
                            <g transform="matrix(-0.524207,0,0,0.809524,6723.26,476.307)">
                                <path d="M6708.25,484.398C6708.25,466.729 6686.09,452.383 6658.81,452.383L6402.47,452.383C6375.18,452.383 6353.03,466.729 6353.03,484.398L6353.03,548.429C6353.03,566.099 6375.18,580.445 6402.47,580.445L6658.81,580.445C6686.09,580.445 6708.25,566.099 6708.25,548.429L6708.25,484.398Z" style="fill:none;stroke:rgb(9,57,54);stroke-width:10.48px;"/>
                            </g>
                            <g transform="matrix(0.857542,0,0,0.857542,-2177.32,457.296)">
                                <text x="6328.15px" y="521.248px" style="font-family:'ArialMT', 'Arial', sans-serif;font-size:45.833px;fill:rgb(9,57,54);">Entity</text>
                            </g>
                            <g transform="matrix(-0.524207,0,0,0.809524,6940.05,476.307)">
                                <path d="M6708.25,484.398C6708.25,466.729 6686.09,452.383 6658.81,452.383L6402.47,452.383C6375.18,452.383 6353.03,466.729 6353.03,484.398L6353.03,548.429C6353.03,566.099 6375.18,580.445 6402.47,580.445L6658.81,580.445C6686.09,580.445 6708.25,566.099 6708.25,548.429L6708.25,484.398Z" style="fill:none;"/>
                                <clipPath id="_clip3">
                                    <path d="M6708.25,484.398C6708.25,466.729 6686.09,452.383 6658.81,452.383L6402.47,452.383C6375.18,452.383 6353.03,466.729 6353.03,484.398L6353.03,548.429C6353.03,566.099 6375.18,580.445 6402.47,580.445L6658.81,580.445C6686.09,580.445 6708.25,566.099 6708.25,548.429L6708.25,484.398Z"/>
                                </clipPath>
                                <g clip-path="url(#_clip3)">
                                    <g transform="matrix(-1.63588,0,0,1.05932,16979.1,-23.4842)">
                                        <text x="6328.15px" y="521.248px" style="font-family:'ArialMT', 'Arial', sans-serif;font-size:45.833px;fill:rgb(9,57,54);">Entity</text>
                                    </g>
                                </g>
                                <path d="M6708.25,484.398C6708.25,466.729 6686.09,452.383 6658.81,452.383L6402.47,452.383C6375.18,452.383 6353.03,466.729 6353.03,484.398L6353.03,548.429C6353.03,566.099 6375.18,580.445 6402.47,580.445L6658.81,580.445C6686.09,580.445 6708.25,566.099 6708.25,548.429L6708.25,484.398Z" style="fill:none;stroke:rgb(9,57,54);stroke-width:10.48px;"/>
                            </g>
                            <g transform="matrix(0.91073,0,0,0.809524,-2499.65,155.128)">
                                <path d="M6708.25,484.398C6708.25,466.729 6695.49,452.383 6679.79,452.383L6381.48,452.383C6365.78,452.383 6353.03,466.729 6353.03,484.398L6353.03,548.429C6353.03,566.099 6365.78,580.445 6381.48,580.445L6679.79,580.445C6695.49,580.445 6708.25,566.099 6708.25,548.429L6708.25,484.398Z" style="fill:none;"/>
                                <clipPath id="_clip4">
                                    <path d="M6708.25,484.398C6708.25,466.729 6695.49,452.383 6679.79,452.383L6381.48,452.383C6365.78,452.383 6353.03,466.729 6353.03,484.398L6353.03,548.429C6353.03,566.099 6365.78,580.445 6381.48,580.445L6679.79,580.445C6695.49,580.445 6708.25,566.099 6708.25,548.429L6708.25,484.398Z"/>
                                </clipPath>
                                <g clip-path="url(#_clip4)">
                                    <g transform="matrix(0.941599,0,0,1.05932,487.319,-23.4842)">
                                        <text x="6328.15px" y="521.248px" style="font-family:'ArialMT', 'Arial', sans-serif;font-size:45.833px;fill:rgb(9,57,54);">Package</text>
                                    </g>
                                </g>
                                <path d="M6708.25,484.398C6708.25,466.729 6695.49,452.383 6679.79,452.383L6381.48,452.383C6365.78,452.383 6353.03,466.729 6353.03,484.398L6353.03,548.429C6353.03,566.099 6365.78,580.445 6381.48,580.445L6679.79,580.445C6695.49,580.445 6708.25,566.099 6708.25,548.429L6708.25,484.398Z" style="fill:none;stroke:rgb(9,57,54);stroke-width:8.29px;"/>
                            </g>
                            <g transform="matrix(0.98131,0,0,1.09936,-2888.32,-25.229)">
                                <g transform="matrix(0.873875,-0,-0,0.780038,5904.06,147.762)">
                                    <path d="M448.193,804.082L435.693,816.582L423.193,804.082" style="fill:none;stroke:rgb(9,57,54);stroke-width:8.33px;stroke-linejoin:miter;stroke-miterlimit:10;"/>
                                    <path d="M519.96,568.832L519.96,688.542L435.693,688.542L435.693,816.582" style="fill:none;stroke:rgb(9,57,54);stroke-width:8.33px;"/>
                                </g>
                            </g>
                            <g transform="matrix(0.98131,0,0,-1.09936,-2709.34,1492.76)">
                                <g transform="matrix(0.873875,0,0,-0.780038,5721.67,1233.03)">
                                    <path d="M724.602,587.225L737.102,574.725L749.602,587.225" style="fill:none;stroke:rgb(9,57,54);stroke-width:8.33px;stroke-linejoin:miter;stroke-miterlimit:10;"/>
                                    <path d="M737.102,822.475L737.102,574.725" style="fill:none;stroke:rgb(9,57,54);stroke-width:8.33px;"/>
                                </g>
                            </g>
                            <g transform="matrix(7.57891e-17,-1.23773,0.354509,2.17074e-17,3400.07,8886.37)">
                                <g transform="matrix(4.24239e-17,2.41896,-0.692835,1.48119e-16,7068.72,-1395.38)">
                                    <path d="M839.762,506.664L827.262,494.164L839.762,481.664" style="fill:none;stroke:rgb(9,57,54);stroke-width:8.33px;stroke-linejoin:miter;stroke-miterlimit:10;"/>
                                    <path d="M821.369,882.92L898.574,882.92L898.574,494.164L827.262,494.164" style="fill:none;stroke:rgb(9,57,54);stroke-width:8.33px;"/>
                                </g>
                            </g>
                        </g>
                    </g>
                </g>
                <g transform="matrix(1,0,0,1,2916.33,0)">
                    <path d="M340.63,306.38C340.63,320.21 329.419,331.421 315.589,331.421C301.759,331.421 290.548,320.21 290.548,306.38C290.548,292.551 301.759,281.34 315.589,281.34C329.419,281.34 340.63,292.551 340.63,306.38Z" style="fill:rgb(60,75,89);fill-rule:nonzero;"/>
                </g>
                <g transform="matrix(1,0,0,1,2916.33,0)">
                    <path d="M418.386,306.38C418.386,320.21 407.175,331.421 393.346,331.421C379.518,331.421 368.307,320.21 368.307,306.38C368.307,292.551 379.518,281.34 393.346,281.34C407.175,281.34 418.386,292.551 418.386,306.38Z" style="fill:rgb(60,75,89);fill-rule:nonzero;"/>
                </g>
                <g transform="matrix(1,0,0,1,2916.33,0)">
                    <path d="M496.146,306.38C496.146,320.21 484.936,331.421 471.104,331.421C457.275,331.421 446.064,320.21 446.064,306.38C446.064,292.551 457.275,281.34 471.104,281.34C484.936,281.34 496.146,292.551 496.146,306.38Z" style="fill:rgb(60,75,89);fill-rule:nonzero;"/>
                </g>
                <g transform="matrix(1,0,0,1,2916.33,0)">
                    <path d="M337.903,303.653C337.903,317.482 326.691,328.694 312.862,328.694C299.033,328.694 287.821,317.482 287.821,303.653C287.821,289.824 299.033,278.612 312.862,278.612C326.691,278.612 337.903,289.824 337.903,303.653Z" style="fill:rgb(234,56,73);fill-rule:nonzero;"/>
                </g>
                <g transform="matrix(1,0,0,1,2916.33,0)">
                    <path d="M415.661,303.653C415.661,317.482 404.45,328.694 390.621,328.694C376.789,328.694 365.579,317.482 365.579,303.653C365.579,289.824 376.789,278.612 390.621,278.612C404.45,278.612 415.661,289.824 415.661,303.653Z" style="fill:rgb(98,191,122);fill-rule:nonzero;"/>
                </g>
                <g transform="matrix(1,0,0,1,2916.33,0)">
                    <path d="M493.418,303.653C493.418,317.482 482.207,328.694 468.379,328.694C454.546,328.694 443.336,317.482 443.336,303.653C443.336,289.824 454.546,278.612 468.379,278.612C482.207,278.612 493.418,289.824 493.418,303.653Z" style="fill:rgb(254,208,66);fill-rule:nonzero;"/>
                </g>
                <g transform="matrix(1,0,0,1,2916.33,0)">
                    <path d="M296.741,322.866C294.747,321.183 293.023,319.189 291.641,316.954C291.642,316.954 291.642,316.955 291.642,316.955C292.991,319.101 294.655,321.028 296.571,322.67C296.627,322.736 296.684,322.802 296.741,322.866ZM331.902,287.382C331.895,287.376 331.887,287.369 331.88,287.363C331.602,287.039 331.316,286.722 331.022,286.412C331.324,286.727 331.617,287.051 331.902,287.382Z" style="fill:rgb(115,124,134);fill-rule:nonzero;"/>
                </g>
                <g transform="matrix(1,0,0,1,2916.33,0)">
                    <path d="M312.863,328.733C306.711,328.733 301.086,326.537 296.741,322.866C296.684,322.802 296.627,322.736 296.571,322.67C300.95,326.425 306.641,328.694 312.862,328.694C326.691,328.694 337.903,317.482 337.903,303.653C337.903,297.433 335.634,291.742 331.88,287.363C331.887,287.369 331.895,287.376 331.902,287.382C335.661,291.75 337.918,297.444 337.918,303.678C337.918,317.514 326.699,328.733 312.863,328.733Z" style="fill:rgb(81,94,107);fill-rule:nonzero;"/>
                </g>
                <g transform="matrix(1,0,0,1,2916.33,0)">
                    <path d="M312.862,328.694C306.641,328.694 300.95,326.425 296.571,322.67C294.655,321.028 292.991,319.101 291.642,316.955C295.476,319.385 300.056,320.787 304.917,320.787C318.753,320.787 329.971,309.569 329.971,295.732C329.971,290.872 328.569,286.291 326.138,282.456C327.934,283.567 329.573,284.898 331.022,286.412C331.316,286.722 331.602,287.039 331.88,287.363C335.634,291.742 337.903,297.433 337.903,303.653C337.903,317.482 326.691,328.694 312.862,328.694Z" style="fill:rgb(235,76,91);fill-rule:nonzero;"/>
                </g>
                <g transform="matrix(1,0,0,1,2916.33,0)">
                    <path d="M374.432,322.79C373.192,321.734 372.061,320.559 371.053,319.28C372.035,320.511 373.136,321.646 374.329,322.671C374.364,322.711 374.396,322.75 374.432,322.79ZM409.75,287.461C409.714,287.428 409.675,287.395 409.639,287.363C408.646,286.206 407.554,285.142 406.368,284.184C407.596,285.167 408.732,286.265 409.75,287.461Z" style="fill:rgb(115,124,134);fill-rule:nonzero;"/>
                </g>
                <g transform="matrix(1,0,0,1,2916.33,0)">
                    <path d="M390.646,328.733C384.45,328.733 378.789,326.506 374.432,322.79C374.396,322.75 374.364,322.711 374.329,322.671C378.707,326.425 384.4,328.694 390.621,328.694C404.45,328.694 415.661,317.482 415.661,303.653C415.661,297.433 413.393,291.742 409.639,287.363C409.675,287.395 409.714,287.428 409.75,287.461C413.471,291.819 415.7,297.481 415.7,303.678C415.7,317.514 404.482,328.733 390.646,328.733Z" style="fill:rgb(81,94,107);fill-rule:nonzero;"/>
                </g>
                <g transform="matrix(1,0,0,1,2916.33,0)">
                    <path d="M390.621,328.694C384.4,328.694 378.707,326.425 374.329,322.671C373.136,321.646 372.035,320.511 371.053,319.28C370.468,318.539 369.921,317.762 369.421,316.954C373.257,319.385 377.836,320.787 382.7,320.787C396.536,320.787 407.754,309.569 407.754,295.732C407.754,290.872 406.35,286.291 403.921,282.456C404.771,282.984 405.589,283.561 406.368,284.184C407.554,285.142 408.646,286.206 409.639,287.363C413.393,291.742 415.661,297.433 415.661,303.653C415.661,317.482 404.45,328.694 390.621,328.694Z" style="fill:rgb(113,195,136);fill-rule:nonzero;"/>
                </g>
                <g transform="matrix(1,0,0,1,2916.33,0)">
                    <path d="M452.129,322.719C451.661,322.316 451.211,321.897 450.771,321.46C451.196,321.879 451.636,322.283 452.086,322.67C452.1,322.686 452.114,322.704 452.129,322.719Z" style="fill:rgb(115,124,134);fill-rule:nonzero;"/>
                </g>
                <g transform="matrix(1,0,0,1,2916.33,0)">
                    <path d="M468.332,328.733C462.164,328.733 456.489,326.478 452.129,322.719C452.114,322.704 452.1,322.686 452.086,322.67C456.464,326.425 462.157,328.694 468.379,328.694C475.15,328.694 481.293,326.007 485.8,321.64C481.286,326.03 475.125,328.733 468.332,328.733Z" style="fill:rgb(81,94,107);fill-rule:nonzero;"/>
                </g>
                <g transform="matrix(1,0,0,1,2916.33,0)">
                    <path d="M468.379,328.694C462.157,328.694 456.464,326.425 452.086,322.67C451.636,322.283 451.196,321.879 450.771,321.46C449.418,320.106 448.218,318.595 447.204,316.954C451.039,319.385 455.618,320.787 460.479,320.787C474.314,320.787 485.439,309.569 485.439,295.732C485.439,290.872 484.039,286.291 481.607,282.456C488.714,286.851 493.386,294.704 493.386,303.678C493.386,310.722 490.479,317.088 485.8,321.64C481.293,326.007 475.15,328.694 468.379,328.694Z" style="fill:rgb(255,198,84);fill-rule:nonzero;"/>
                </g>
                <g transform="matrix(1,0,0,1,2916.33,0)">
                    <path d="M962.179,304.978C962.179,311.375 959.539,317.163 955.375,321.427C951.214,325.59 945.425,328.23 939.029,328.23L590.757,328.23C577.961,328.23 567.607,317.772 567.607,304.978C567.607,298.581 570.146,292.794 574.411,288.631C578.571,284.468 584.361,281.829 590.757,281.829L939.029,281.829C951.821,281.829 962.179,292.185 962.179,304.978Z" style="fill:rgb(9,57,54);fill-rule:nonzero;"/>
                </g>
            </g>
        </g>
    </g>
</svg>
