<?xml version="1.0" encoding="UTF-8" standalone="no"?>
<!DOCTYPE svg PUBLIC "-//W3C//DTD SVG 1.1//EN" "http://www.w3.org/Graphics/SVG/1.1/DTD/svg11.dtd">
<!-- Created with Vectornator (http://vectornator.io/) -->
<svg height="100%" stroke-miterlimit="10" style="fill-rule:nonzero;clip-rule:evenodd;stroke-linecap:round;stroke-linejoin:round;" version="1.1" viewBox="0 0 1250 1250" width="100%" xml:space="preserve" xmlns="http://www.w3.org/2000/svg" xmlns:xlink="http://www.w3.org/1999/xlink">
<defs/>
<clipPath id="ArtboardFrame">
<rect height="1250" width="1250" x="0" y="0"/>
</clipPath>
<g clip-path="url(#ArtboardFrame)" id="Ebene-2">
<g opacity="1">
<path d="M1240.3 615.247C1240.3 619.936 1240.21 624.622 1240.01 629.211C1240.01 630.19 1240.01 631.261 1239.91 632.24C1239.81 638.586 1239.52 644.836 1239.13 651.183C1238.64 662.804 1237.67 674.426 1236.3 685.951C1235.81 690.736 1235.22 695.618 1234.54 700.404C1232.88 712.026 1231.02 723.547 1228.78 734.876C1228.78 735.072 1228.68 735.168 1228.68 735.365C1227.71 740.443 1226.63 745.522 1225.56 750.597C1224.48 755.19 1223.51 759.683 1222.33 764.272C1191.86 889.272 1123.7 999.426 1030.73 1082.24C1011.79 1099.23 991.669 1114.95 970.672 1129.5C904.462 1175.3 828.876 1208.7 747.43 1226.09C743.426 1226.97 739.422 1227.84 735.419 1228.63C727.801 1230.19 719.987 1231.55 712.176 1232.73C706.022 1233.7 699.676 1234.49 693.426 1235.27C681.219 1236.93 668.815 1238.1 656.319 1238.88C642.74 1239.76 629.072 1240.25 615.301 1240.25C602.801 1240.25 590.497 1239.86 578.29 1239.08C571.355 1238.69 564.422 1238.2 557.587 1237.61C557.194 1237.61 556.805 1237.51 556.415 1237.51C551.24 1236.93 545.965 1236.44 540.887 1235.75C539.715 1235.66 538.64 1235.46 537.469 1235.37C536.101 1235.27 534.637 1235.07 533.269 1234.88C529.951 1234.39 526.533 1233.9 523.212 1233.41C520.965 1233.12 518.815 1232.83 516.572 1232.43C496.062 1229.21 475.944 1224.92 456.219 1219.74C188.153 1149.43-9.69886 905.483-9.69886 615.247C-9.69886 270.032 270.086-9.75281 615.301-9.75281C906.219-9.75281 1150.75 188.978 1220.28 458.118C1228.68 490.343 1234.44 523.547 1237.57 557.533C1238.54 567.397 1239.23 577.454 1239.62 587.511C1239.62 588.293 1239.72 588.979 1239.72 589.758C1239.81 592.201 1239.91 594.74 1239.91 597.279C1240.21 603.236 1240.3 609.29 1240.3 615.247Z" fill="#26888c" fill-rule="nonzero" opacity="1" stroke="none"/>
<path d="M-209.09-80.4828L1298.22-80.4828L1298.22-80.4828L1298.22 1311.62L1298.22 1311.62L-209.09 1311.62L-209.09 1311.62L-209.09-80.4828L-209.09-80.4828Z" fill="#26888c" fill-rule="evenodd" opacity="1" stroke="none"/>
<path d="M1272.61 1263.17C1253.67 1280.16 517.25 1268.34 497.525 1263.17L236.84 1000.36C241.655 1003.82 247.57 1005.87 253.972 1005.87L976.629 1005.87C992.839 1005.87 1005.93 992.781 1005.93 976.571L1005.93 365.924L224.675 365.924L224.675 976.571L224.675 253.914L224.675 365.899L1005.93 365.899L1005.93 253.914C1005.93 249.097 1004.77 244.557 1002.72 240.553L1272.61 512.218C1281.01 544.443 1365.58 1180.35 1272.61 1263.17ZM224.681 976.799L224.681 976.792L224.681 976.799ZM224.681 976.735C224.68 976.721 224.68 976.706 224.68 976.696C224.68 976.706 224.68 976.721 224.681 976.735ZM224.68 976.656C224.68 976.628 224.68 976.599 224.68 976.571C224.68 976.599 224.68 976.628 224.68 976.656ZM224.711 252.552C225.419 236.976 238.222 224.617 253.977 224.617L976.634 224.617C976.662 224.617 976.687 224.617 976.716 224.617C976.687 224.617 976.662 224.617 976.634 224.617L253.977 224.617C238.223 224.617 225.419 236.975 224.711 252.552ZM976.873 224.618C976.862 224.618 976.855 224.618 976.848 224.618C976.855 224.618 976.866 224.618 976.873 224.618ZM976.809 224.618C976.784 224.617 976.762 224.617 976.737 224.617C976.762 224.617 976.784 224.617 976.809 224.618Z" fill="#0c5450" fill-rule="nonzero" opacity="1" stroke="none"/>
<path d="M1005.92 365.904L1005.92 253.919C1005.92 237.708 992.835 224.622 976.625 224.622L253.968 224.622C237.758 224.622 224.671 237.708 224.671 253.919L224.671 365.904C224.671 365.904 1005.92 365.904 1005.92 365.904Z" fill="#6a8384" fill-rule="nonzero" opacity="1" stroke="none"/>
<path d="M309.94 591.863L322.235 591.863L322.235 636.442C329.604 639.047 334.531 646.015 334.531 653.831C334.531 664.01 326.266 672.274 316.087 672.274C305.908 672.274 297.644 664.01 297.644 653.831C297.644 646.015 302.571 639.047 309.94 636.442C309.94 636.442 309.94 591.863 309.94 591.863Z" fill="#ffc654" fill-rule="evenodd" opacity="1" stroke="none"/>
<path d="M1005.92 365.929L1005.92 976.576C1005.92 992.786 992.835 1005.87 976.625 1005.87L253.968 1005.87C237.758 1005.87 224.671 992.786 224.671 976.576L224.671 365.929C224.671 365.929 1005.92 365.929 1005.92 365.929Z" fill="#f9fafa" fill-rule="nonzero" opacity="1" stroke="none"/>
<path d="M330.931 296.627C330.931 310.457 319.72 321.668 305.89 321.668C292.06 321.668 280.849 310.457 280.849 296.627C280.849 282.798 292.06 271.587 305.89 271.587C319.72 271.587 330.931 282.798 330.931 296.627Z" fill="#3c4b59" fill-rule="nonzero" opacity="1" stroke="none"/>
<path d="M408.687 296.627C408.687 310.457 397.476 321.668 383.647 321.668C369.819 321.668 358.608 310.457 358.608 296.627C358.608 282.798 369.819 271.587 383.647 271.587C397.476 271.587 408.687 282.798 408.687 296.627Z" fill="#3c4b59" fill-rule="nonzero" opacity="1" stroke="none"/>
<path d="M486.447 296.627C486.447 310.457 475.237 321.668 461.405 321.668C447.576 321.668 436.365 310.457 436.365 296.627C436.365 282.798 447.576 271.587 461.405 271.587C475.237 271.587 486.447 282.798 486.447 296.627Z" fill="#3c4b59" fill-rule="nonzero" opacity="1" stroke="none"/>
<path d="M328.204 293.9C328.204 307.729 316.992 318.941 303.163 318.941C289.334 318.941 278.122 307.729 278.122 293.9C278.122 280.071 289.334 268.859 303.163 268.859C316.992 268.859 328.204 280.071 328.204 293.9Z" fill="#ea3849" fill-rule="nonzero" opacity="1" stroke="none"/>
<path d="M405.962 293.9C405.962 307.729 394.751 318.941 380.922 318.941C367.09 318.941 355.88 307.729 355.88 293.9C355.88 280.071 367.09 268.859 380.922 268.859C394.751 268.859 405.962 280.071 405.962 293.9Z" fill="#62bf7a" fill-rule="nonzero" opacity="1" stroke="none"/>
<path d="M483.719 293.9C483.719 307.729 472.508 318.941 458.68 318.941C444.847 318.941 433.637 307.729 433.637 293.9C433.637 280.071 444.847 268.859 458.68 268.859C472.508 268.859 483.719 280.071 483.719 293.9Z" fill="#fed042" fill-rule="nonzero" opacity="1" stroke="none"/>
<path d="M287.042 313.113C285.048 311.43 283.324 309.436 281.942 307.201C281.943 307.201 281.943 307.202 281.943 307.202C283.292 309.348 284.956 311.275 286.872 312.917C286.928 312.983 286.985 313.049 287.042 313.113ZM322.203 277.629C322.196 277.623 322.188 277.616 322.181 277.61C321.903 277.286 321.617 276.969 321.323 276.659C321.625 276.974 321.918 277.298 322.203 277.629Z" fill="#737c86" fill-rule="nonzero" opacity="1" stroke="none"/>
<path d="M303.164 318.98C297.012 318.98 291.387 316.784 287.042 313.113C286.985 313.049 286.928 312.983 286.872 312.917C291.251 316.672 296.942 318.941 303.163 318.941C316.992 318.941 328.204 307.729 328.204 293.9C328.204 287.68 325.935 281.989 322.181 277.61C322.188 277.616 322.196 277.623 322.203 277.629C325.962 281.997 328.219 287.691 328.219 293.925C328.219 307.761 317 318.98 303.164 318.98Z" fill="#515e6b" fill-rule="nonzero" opacity="1" stroke="none"/>
<path d="M303.163 318.941C296.942 318.941 291.251 316.672 286.872 312.917C284.956 311.275 283.292 309.348 281.943 307.202C285.777 309.632 290.357 311.034 295.218 311.034C309.054 311.034 320.272 299.816 320.272 285.979C320.272 281.119 318.87 276.538 316.439 272.703C318.235 273.814 319.874 275.145 321.323 276.659C321.617 276.969 321.903 277.286 322.181 277.61C325.935 281.989 328.204 287.68 328.204 293.9C328.204 307.729 316.992 318.941 303.163 318.941Z" fill="#eb4c5b" fill-rule="nonzero" opacity="1" stroke="none"/>
<path d="M364.733 313.037C363.493 311.981 362.362 310.806 361.354 309.527C362.336 310.758 363.437 311.893 364.63 312.918C364.665 312.958 364.697 312.997 364.733 313.037ZM400.051 277.708C400.015 277.675 399.976 277.642 399.94 277.61C398.947 276.453 397.855 275.389 396.669 274.431C397.897 275.414 399.033 276.512 400.051 277.708Z" fill="#737c86" fill-rule="nonzero" opacity="1" stroke="none"/>
<path d="M380.947 318.98C374.751 318.98 369.09 316.753 364.733 313.037C364.697 312.997 364.665 312.958 364.63 312.918C369.008 316.672 374.701 318.941 380.922 318.941C394.751 318.941 405.962 307.729 405.962 293.9C405.962 287.68 403.694 281.989 399.94 277.61C399.976 277.642 400.015 277.675 400.051 277.708C403.772 282.066 406.001 287.728 406.001 293.925C406.001 307.761 394.783 318.98 380.947 318.98Z" fill="#515e6b" fill-rule="nonzero" opacity="1" stroke="none"/>
<path d="M380.922 318.941C374.701 318.941 369.008 316.672 364.63 312.918C363.437 311.893 362.336 310.758 361.354 309.527C360.769 308.786 360.222 308.009 359.722 307.201C363.558 309.632 368.137 311.034 373.001 311.034C386.837 311.034 398.055 299.816 398.055 285.979C398.055 281.119 396.651 276.538 394.222 272.703C395.072 273.231 395.89 273.808 396.669 274.431C397.855 275.389 398.947 276.453 399.94 277.61C403.694 281.989 405.962 287.68 405.962 293.9C405.962 307.729 394.751 318.941 380.922 318.941Z" fill="#71c388" fill-rule="nonzero" opacity="1" stroke="none"/>
<path d="M442.43 312.966C441.962 312.563 441.512 312.144 441.072 311.707C441.497 312.126 441.937 312.53 442.387 312.917C442.401 312.933 442.415 312.951 442.43 312.966Z" fill="#737c86" fill-rule="nonzero" opacity="1" stroke="none"/>
<path d="M458.633 318.98C452.465 318.98 446.79 316.725 442.43 312.966C442.415 312.951 442.401 312.933 442.387 312.917C446.765 316.672 452.458 318.941 458.68 318.941C465.451 318.941 471.594 316.254 476.101 311.887C471.587 316.277 465.426 318.98 458.633 318.98Z" fill="#515e6b" fill-rule="nonzero" opacity="1" stroke="none"/>
<path d="M458.68 318.941C452.458 318.941 446.765 316.672 442.387 312.917C441.937 312.53 441.497 312.126 441.072 311.707C439.719 310.353 438.519 308.842 437.505 307.201C441.34 309.632 445.919 311.034 450.78 311.034C464.615 311.034 475.74 299.816 475.74 285.979C475.74 281.119 474.34 276.538 471.908 272.703C479.015 277.098 483.687 284.951 483.687 293.925C483.687 300.969 480.78 307.335 476.101 311.887C471.594 316.254 465.451 318.941 458.68 318.941Z" fill="#ffc654" fill-rule="nonzero" opacity="1" stroke="none"/>
<path d="M952.48 295.225C952.48 301.622 949.84 307.41 945.676 311.674C941.515 315.837 935.726 318.477 929.33 318.477L581.058 318.477C568.262 318.477 557.908 308.019 557.908 295.225C557.908 288.828 560.447 283.041 564.712 278.878C568.872 274.715 574.662 272.076 581.058 272.076L929.33 272.076C942.122 272.076 952.48 282.432 952.48 295.225Z" fill="#093936" fill-rule="nonzero" opacity="1" stroke="none"/>
<path d="M615.322 596.033C586.708 596.033 563.565 572.886 563.565 544.272C563.565 530.801 568.715 518.522 577.205 509.351C568.755 518.554 563.597 530.833 563.597 544.311C563.597 572.865 586.744 596.015 615.301 596.015C632.122 596.015 647.069 587.979 656.512 575.54C656.519 575.536 656.526 575.529 656.533 575.522C647.062 588.026 632.119 596.033 615.322 596.033Z" fill="#737c86" fill-rule="nonzero" opacity="1" stroke="none"/>
<path d="M615.322 737.633C586.708 737.633 563.565 714.49 563.565 685.876C563.565 673.972 567.587 662.997 574.38 654.279C567.619 663.018 563.597 673.983 563.597 685.886C563.597 714.443 586.744 737.59 615.301 737.59C632.097 737.59 647.022 729.583 656.465 717.176C656.487 717.158 656.512 717.143 656.533 717.126C647.062 729.626 632.119 737.633 615.322 737.633Z" fill="#737c86" fill-rule="nonzero" opacity="1" stroke="none"/>
<path d="M580.308 865.526C570.012 856.079 563.565 842.526 563.565 827.476C563.565 812.633 569.751 799.276 579.715 789.951C569.787 799.372 563.597 812.697 563.597 827.465C563.597 842.522 570.033 856.076 580.308 865.526Z" fill="#737c86" fill-rule="nonzero" opacity="1" stroke="none"/>
</g>
</g>
<g id="Ebene-1"/>
<g id="Ebene-3">
<g opacity="1">
<g opacity="1">
<path d="M868.191 965.481L877.459 956.213C879.874 953.804 880.89 950.326 880.149 946.995L846.716 796.52L912.536 730.899C920.01 723.417 924.204 713.272 924.196 702.697L924.196 686.902C924.196 681.399 919.734 676.937 914.23 676.937L898.436 676.937C887.861 676.929 877.716 681.123 870.234 688.596L804.613 754.417L654.137 720.984C650.807 720.243 647.329 721.258 644.919 723.674L635.652 732.942C634.575 734.025 634.054 735.542 634.238 737.058C634.423 738.574 635.293 739.922 636.598 740.715L749.355 809.475L702.07 866.725L654.237 855.016C650.852 854.19 647.281 855.191 644.82 857.657L639.339 863.138C638.235 864.242 637.713 865.8 637.929 867.347C638.144 868.893 639.072 870.249 640.435 871.01L698.084 903.049L730.122 960.698C730.883 962.061 732.239 962.989 733.786 963.204C735.332 963.42 736.89 962.897 737.995 961.794L743.476 956.313C745.942 953.851 746.943 950.281 746.117 946.896L734.407 899.063L791.658 851.777L860.418 964.584C861.219 965.882 862.571 966.742 864.087 966.917C865.603 967.092 867.115 966.563 868.191 965.481Z" fill="#f9fafa" fill-rule="nonzero" opacity="1" stroke="none"/>
<path d="M804.613 754.417L654.137 720.984C650.807 720.243 647.329 721.258 644.919 723.674L635.652 732.942C634.575 734.025 634.054 735.542 634.238 737.058C634.423 738.574 635.293 739.922 636.598 740.715L749.355 809.475L804.613 754.417Z" fill="#dfdfde" fill-rule="nonzero" opacity="1" stroke="none"/>
<path d="M868.191 965.481L877.459 956.213C879.874 953.804 880.89 950.326 880.149 946.995L846.716 796.52L912.536 730.899C920.01 723.417 924.204 713.272 924.196 702.697L924.196 676.937L698.084 903.049L730.122 960.698C730.883 962.061 732.24 962.989 733.786 963.204C735.332 963.42 736.89 962.897 737.995 961.794L743.476 956.313C745.942 953.851 746.943 950.281 746.117 946.896L734.407 899.063L791.658 851.777L860.418 964.584C861.219 965.882 862.571 966.742 864.087 966.917C865.603 967.092 867.115 966.563 868.191 965.481Z" fill="#dfdfde" fill-rule="nonzero" opacity="1" stroke="none"/>
<path d="M743.775 850.283L736.301 857.757C734.879 858.974 734.26 860.886 734.697 862.706C735.135 864.527 736.556 865.948 738.377 866.386C740.197 866.823 742.109 866.204 743.326 864.782L750.8 857.308C752.493 855.331 752.379 852.384 750.539 850.544C748.699 848.704 745.752 848.59 743.775 850.283ZM777.009 817.049C775.032 815.356 772.085 815.469 770.245 817.31C768.404 819.15 768.29 822.097 769.983 824.074L777.009 831.1C778.986 832.793 781.933 832.679 783.773 830.838C785.614 828.998 785.727 826.051 784.034 824.074L777.009 817.049ZM794.647 799.46C792.67 797.767 789.724 797.881 787.883 799.721C786.043 801.562 785.929 804.508 787.622 806.485L794.647 813.511C796.624 815.204 799.571 815.09 801.412 813.25C803.252 811.409 803.366 808.462 801.673 806.485L794.647 799.46ZM812.286 781.821C810.309 780.128 807.362 780.242 805.522 782.083C803.681 783.923 803.567 786.87 805.26 788.847L812.286 795.872C814.263 797.565 817.21 797.452 819.05 795.611C820.891 793.771 821.004 790.824 819.311 788.847L812.286 781.821ZM829.875 764.183C827.898 762.49 824.951 762.604 823.11 764.444C821.27 766.285 821.156 769.231 822.849 771.208L829.875 778.234C831.851 779.927 834.798 779.813 836.639 777.973C838.479 776.132 838.593 773.185 836.9 771.208L829.875 764.183Z" fill="#a4a4a2" fill-rule="nonzero" opacity="1" stroke="none"/>
<path d="M914.23 671.954L898.436 671.954C886.54 671.932 875.129 676.668 866.746 685.109L802.869 748.936L655.134 716.15C650.146 715.049 644.941 716.571 641.332 720.186L632.114 729.454C629.955 731.613 628.905 734.642 629.265 737.674C629.624 740.706 631.354 743.406 633.958 745L741.832 810.77L700.227 861.294L655.383 850.332C650.318 849.096 644.974 850.587 641.282 854.269L635.851 859.75C633.644 861.959 632.6 865.075 633.03 868.168C633.461 871.261 635.317 873.973 638.043 875.495L694.447 906.835L725.787 963.239C727.31 965.966 730.022 967.821 733.115 968.252C736.208 968.682 739.324 967.638 741.533 965.431L747.013 960C750.695 956.308 752.187 950.964 750.95 945.899L739.988 901.056L790.362 859.301L856.133 967.175C857.729 969.775 860.428 971.501 863.457 971.859L864.653 971.859C867.292 971.848 869.819 970.79 871.679 968.919L880.946 959.651C884.512 956.074 886.03 950.939 884.982 945.999L852.197 798.264L916.024 734.437C924.477 726.041 929.214 714.61 929.178 702.697L929.178 686.902C929.178 678.647 922.486 671.954 914.23 671.954ZM919.213 702.697C919.28 712.034 915.601 721.008 908.999 727.61L843.178 793.182C841.979 794.381 841.472 796.108 841.833 797.766L875.216 948.092C875.578 949.749 875.071 951.476 873.871 952.676L864.404 961.993L797.687 852.375L812.635 837.427C814.328 835.451 814.214 832.504 812.373 830.663C810.533 828.823 807.586 828.709 805.609 830.402L788.17 847.841L731.219 895.226C729.77 896.44 729.133 898.37 729.574 900.209L741.283 948.042C741.712 949.738 741.221 951.534 739.988 952.775L734.507 958.206L704.263 903.896L728.378 879.78C730.071 877.803 729.958 874.856 728.117 873.016C726.277 871.175 723.33 871.061 721.353 872.754L697.237 896.87L642.877 866.626L648.357 861.294C649.588 860.079 651.361 859.588 653.041 859.999L700.874 871.708C702.713 872.15 704.643 871.513 705.857 870.064L752.993 813.013L767.642 798.364C769.335 796.387 769.221 793.44 767.38 791.599C765.54 789.759 762.593 789.645 760.616 791.338L748.558 803.396L639.14 736.729L648.407 727.461C649.607 726.261 651.334 725.755 652.991 726.116L803.317 759.499C804.975 759.86 806.702 759.353 807.901 758.154L873.772 692.134C880.374 685.532 889.348 681.853 898.685 681.92L914.23 681.92C916.982 681.92 919.213 684.151 919.213 686.902L919.213 702.697Z" fill="#a4a4a2" fill-rule="nonzero" opacity="1" stroke="none"/>
</g>
<path d="M299.071 817.553L299.071 839.725L314.592 839.725C318.238 839.725 320.837 840.427 322.389 841.832C323.941 843.236 324.717 845.071 324.717 847.338C324.717 849.555 323.941 851.366 322.389 852.77C320.837 854.174 318.238 854.876 314.592 854.876L281.556 854.876C277.909 854.876 275.31 854.174 273.758 852.77C272.206 851.366 271.43 849.53 271.43 847.264C271.43 845.047 272.219 843.236 273.795 841.832C275.372 840.427 277.959 839.725 281.556 839.725L283.921 839.725L283.921 780.452L281.556 780.452C277.909 780.452 275.31 779.75 273.758 778.346C272.206 776.942 271.43 775.106 271.43 772.84C271.43 770.573 272.206 768.738 273.758 767.334C275.31 765.929 277.909 765.227 281.556 765.227L352.876 765.301L352.876 788.434C352.876 792.031 352.173 794.605 350.769 796.157C349.365 797.709 347.53 798.485 345.263 798.485C343.046 798.485 341.235 797.722 339.831 796.194C338.427 794.667 337.725 792.08 337.725 788.434L337.725 780.452L299.071 780.452L299.071 802.402L312.375 802.402C312.375 798.461 312.744 795.923 313.483 794.79C315.011 792.376 317.179 791.169 319.987 791.169C322.204 791.169 324.015 791.945 325.419 793.497C326.823 795.049 327.526 797.648 327.526 801.294L327.526 818.736C327.526 822.382 326.823 824.981 325.419 826.533C324.015 828.085 322.18 828.861 319.913 828.861C317.154 828.861 315.011 827.654 313.483 825.24C312.744 824.106 312.375 821.544 312.375 817.553L299.071 817.553Z" fill="#a208ba" fill-rule="nonzero" opacity="1" stroke="none"/>
<path d="M384.656 820.657L384.656 839.725L390.125 839.725C393.771 839.725 396.37 840.427 397.922 841.832C399.474 843.236 400.25 845.071 400.25 847.338C400.25 849.555 399.474 851.366 397.922 852.77C396.37 854.174 393.771 854.876 390.125 854.876L367.14 854.876C363.494 854.876 360.894 854.174 359.342 852.77C357.79 851.366 357.014 849.53 357.014 847.264C357.014 845.047 357.803 843.236 359.379 841.832C360.956 840.427 363.543 839.725 367.14 839.725L369.505 839.725L369.505 780.452L367.14 780.452C363.494 780.452 360.894 779.75 359.342 778.346C357.79 776.942 357.014 775.106 357.014 772.84C357.014 770.573 357.79 768.738 359.342 767.334C360.894 765.929 363.494 765.227 367.14 765.227L401.432 765.301C412.124 765.301 420.414 767.95 426.302 773.246C432.19 778.543 435.134 784.985 435.134 792.573C435.134 797.303 433.754 801.602 430.995 805.47C428.236 809.337 424.072 812.774 418.505 815.78C421.707 818.588 425.132 822.185 428.778 826.57C431.044 829.378 434.099 833.763 437.942 839.725C441.785 839.725 444.323 840.119 445.555 840.908C447.772 842.435 448.88 844.579 448.88 847.338C448.88 849.555 448.117 851.366 446.589 852.77C445.062 854.174 442.475 854.876 438.829 854.876L430.182 854.876C417.914 835.907 407.739 824.501 399.659 820.657L384.656 820.657ZM384.656 805.506L396.481 805.506C400.866 805.506 404.783 804.841 408.232 803.511C412.863 801.737 415.98 799.865 417.581 797.894C419.182 795.923 419.983 793.977 419.983 792.055C419.983 789.198 418.456 786.549 415.401 784.11C412.346 781.672 407.887 780.452 402.024 780.452L384.656 780.452L384.656 805.506Z" fill="#a208ba" fill-rule="nonzero" opacity="1" stroke="none"/>
<path d="M533.652 810.089C533.652 823.54 529.377 834.737 520.829 843.679C512.28 852.622 502.389 857.093 491.155 857.093C481.055 857.093 471.939 853.373 463.81 845.933C453.758 836.72 448.733 824.772 448.733 810.089C448.733 795.406 453.758 783.433 463.81 774.17C471.939 766.73 481.055 763.01 491.155 763.01C502.389 763.01 512.28 767.481 520.829 776.424C529.377 785.367 533.652 796.588 533.652 810.089ZM518.501 810.089C518.501 800.875 515.717 793.25 510.149 787.215C504.582 781.179 498.25 778.161 491.155 778.161C484.109 778.161 477.803 781.191 472.235 787.251C466.667 793.312 463.884 800.924 463.884 810.089C463.884 819.253 466.667 826.853 472.235 832.889C477.803 838.925 484.109 841.943 491.155 841.943C498.25 841.943 504.582 838.937 510.149 832.926C515.717 826.915 518.501 819.302 518.501 810.089Z" fill="#a208ba" fill-rule="nonzero" opacity="1" stroke="none"/>
<path d="M558.262 794.568L558.262 839.725L563.732 839.725C567.378 839.725 569.977 840.427 571.529 841.832C573.081 843.236 573.857 845.071 573.857 847.338C573.857 849.555 573.081 851.366 571.529 852.77C569.977 854.174 567.378 854.876 563.732 854.876L543.851 854.876C540.205 854.876 537.606 854.174 536.054 852.77C534.501 851.366 533.725 849.53 533.725 847.264C533.725 845.047 534.489 843.236 536.017 841.832C537.544 840.427 539.909 839.725 543.112 839.725L543.112 780.452C540.451 780.206 538.443 779.393 537.088 778.013C535.733 776.634 535.056 774.909 535.056 772.84C535.056 770.573 535.832 768.738 537.384 767.334C538.936 765.929 541.535 765.227 545.181 765.227L561.81 765.301L582.43 810.902L602.68 765.227L619.457 765.301C623.103 765.301 625.702 765.991 627.254 767.371C628.807 768.75 629.583 770.573 629.583 772.84C629.583 774.909 628.893 776.634 627.513 778.013C626.134 779.393 624.138 780.206 621.527 780.452L621.527 839.725C624.729 839.725 627.094 840.44 628.622 841.869C630.149 843.297 630.913 845.12 630.913 847.338C630.913 849.555 630.137 851.366 628.585 852.77C627.033 854.174 624.434 854.876 620.788 854.876L600.833 854.876C597.236 854.876 594.662 854.174 593.11 852.77C591.557 851.366 590.781 849.53 590.781 847.264C590.781 845.047 591.557 843.236 593.11 841.832C594.662 840.427 597.236 839.725 600.833 839.725L606.376 839.725L606.376 794.568L589.008 833.591L575.852 833.591L558.262 794.568Z" fill="#a208ba" fill-rule="nonzero" opacity="1" stroke="none"/>
</g>
<path d="M284.884 608.783C283.596 610.31 282.558 611.288 281.771 611.718C280.984 612.147 280.018 612.362 278.873 612.362C276.63 612.362 274.83 611.61 273.47 610.107C272.11 608.605 271.43 606.112 271.43 602.629L271.43 592.754C271.43 589.223 272.11 586.707 273.47 585.204C274.83 583.701 276.63 582.95 278.873 582.95C280.59 582.95 282.033 583.403 283.202 584.309C284.371 585.216 285.266 586.731 285.886 588.854C286.506 590.977 287.15 592.42 287.818 593.183C289.201 594.662 291.658 596.165 295.189 597.691C298.719 599.218 302.583 599.981 306.782 599.981C313.318 599.981 318.685 598.455 322.883 595.401C325.555 593.541 326.891 591.251 326.891 588.532C326.891 586.719 326.246 585.013 324.958 583.415C323.67 581.817 321.571 580.493 318.661 579.443C316.753 578.728 312.483 577.75 305.851 576.509C297.837 575.03 291.778 573.241 287.675 571.142C283.572 569.043 280.328 566.085 277.942 562.268C275.557 558.452 274.364 554.325 274.364 549.888C274.364 542.875 277.298 536.733 283.166 531.461C289.034 526.19 296.668 523.554 306.066 523.554C309.835 523.554 313.33 523.971 316.55 524.806C319.77 525.641 322.692 526.917 325.316 528.635C327.224 526.774 329.133 525.844 331.041 525.844C333.188 525.844 334.941 526.595 336.301 528.098C337.661 529.601 338.34 532.093 338.34 535.576L338.34 546.597C338.34 550.127 337.661 552.643 336.301 554.146C334.941 555.649 333.188 556.4 331.041 556.4C329.228 556.4 327.654 555.852 326.318 554.755C325.268 553.943 324.481 552.321 323.957 549.888C323.432 547.455 322.764 545.714 321.953 544.664C320.569 542.851 318.494 541.325 315.727 540.084C312.96 538.844 309.763 538.224 306.138 538.224C300.842 538.224 296.656 539.452 293.579 541.909C290.501 544.366 288.963 546.93 288.963 549.602C288.963 551.415 289.595 553.168 290.859 554.862C292.124 556.555 293.972 557.879 296.405 558.834C298.027 559.501 302.595 560.575 310.109 562.054C317.623 563.533 323.396 565.155 327.427 566.92C331.459 568.685 334.81 571.452 337.482 575.221C340.153 578.99 341.489 583.475 341.489 588.675C341.489 595.926 338.937 601.723 333.832 606.064C327.058 611.789 318.422 614.652 307.927 614.652C303.872 614.652 299.924 614.163 296.083 613.185C292.243 612.207 288.51 610.74 284.884 608.783Z" fill="#a208ba" fill-rule="nonzero" opacity="1" stroke="none"/>
<path d="M379.202 576.295L379.202 597.835L416.629 597.835L416.629 589.891C416.629 586.361 417.309 583.844 418.668 582.342C420.028 580.839 421.805 580.087 424 580.087C426.146 580.087 427.9 580.839 429.259 582.342C430.619 583.844 431.299 586.361 431.299 589.891L431.299 612.505L362.242 612.505C358.712 612.505 356.195 611.825 354.692 610.465C353.189 609.106 352.438 607.328 352.438 605.134C352.438 602.987 353.201 601.234 354.728 599.874C356.255 598.514 358.759 597.835 362.242 597.835L364.532 597.835L364.532 540.442L362.242 540.442C358.712 540.442 356.195 539.762 354.692 538.403C353.189 537.043 352.438 535.266 352.438 533.071C352.438 530.877 353.189 529.1 354.692 527.74C356.195 526.38 358.712 525.701 362.242 525.701L428.079 525.772L428.079 548.099C428.079 551.582 427.411 554.075 426.075 555.577C424.739 557.08 422.974 557.832 420.779 557.832C418.585 557.832 416.808 557.092 415.448 555.613C414.088 554.134 413.408 551.63 413.408 548.099L413.408 540.442L379.202 540.442L379.202 561.624L392.083 561.624C392.083 557.808 392.441 555.351 393.157 554.254C394.635 551.916 396.735 550.747 399.454 550.747C401.601 550.747 403.354 551.498 404.714 553.001C406.073 554.504 406.753 557.021 406.753 560.551L406.753 577.44C406.753 580.636 406.372 582.783 405.608 583.88C404.082 586.122 402.03 587.243 399.454 587.243C396.735 587.243 394.635 586.075 393.157 583.737C392.441 582.64 392.083 580.159 392.083 576.295L379.202 576.295Z" fill="#a208ba" fill-rule="nonzero" opacity="1" stroke="none"/>
<path d="M476.096 540.442L476.096 597.835L507.727 597.835L507.727 583.952C507.727 580.421 508.406 577.905 509.766 576.402C511.126 574.899 512.903 574.148 515.097 574.148C517.244 574.148 518.997 574.899 520.357 576.402C521.717 577.905 522.397 580.421 522.397 583.952L522.397 612.505L452.91 612.505C449.38 612.505 446.863 611.825 445.361 610.465C443.858 609.106 443.106 607.328 443.106 605.134C443.106 602.987 443.858 601.234 445.361 599.874C446.863 598.514 449.38 597.835 452.91 597.835L461.426 597.835L461.426 540.442L452.91 540.442C449.38 540.442 446.863 539.762 445.361 538.403C443.858 537.043 443.106 535.266 443.106 533.071C443.106 530.877 443.858 529.1 445.361 527.74C446.863 526.38 449.38 525.701 452.91 525.701L484.684 525.772C488.214 525.772 490.731 526.44 492.233 527.776C493.736 529.112 494.488 530.877 494.488 533.071C494.488 535.266 493.736 537.043 492.233 538.403C490.731 539.762 488.214 540.442 484.684 540.442L476.096 540.442Z" fill="#a208ba" fill-rule="nonzero" opacity="1" stroke="none"/>
<path d="M555.1 576.295L555.1 597.835L592.527 597.835L592.527 589.891C592.527 586.361 593.207 583.844 594.566 582.342C595.926 580.839 597.703 580.087 599.898 580.087C602.045 580.087 603.798 580.839 605.158 582.342C606.517 583.844 607.197 586.361 607.197 589.891L607.197 612.505L538.14 612.505C534.61 612.505 532.093 611.825 530.59 610.465C529.088 609.106 528.336 607.328 528.336 605.134C528.336 602.987 529.1 601.234 530.626 599.874C532.153 598.514 534.658 597.835 538.14 597.835L540.43 597.835L540.43 540.442L538.14 540.442C534.61 540.442 532.093 539.762 530.59 538.403C529.088 537.043 528.336 535.266 528.336 533.071C528.336 530.877 529.088 529.1 530.59 527.74C532.093 526.38 534.61 525.701 538.14 525.701L603.977 525.772L603.977 548.099C603.977 551.582 603.309 554.075 601.973 555.577C600.637 557.08 598.872 557.832 596.678 557.832C594.483 557.832 592.706 557.092 591.346 555.613C589.987 554.134 589.307 551.63 589.307 548.099L589.307 540.442L555.1 540.442L555.1 561.624L567.981 561.624C567.981 557.808 568.339 555.351 569.055 554.254C570.534 551.916 572.633 550.747 575.352 550.747C577.499 550.747 579.252 551.498 580.612 553.001C581.972 554.504 582.651 557.021 582.651 560.551L582.651 577.44C582.651 580.636 582.27 582.783 581.507 583.88C579.98 586.122 577.928 587.243 575.352 587.243C572.633 587.243 570.534 586.075 569.055 583.737C568.339 582.64 567.981 580.159 567.981 576.295L555.1 576.295Z" fill="#a208ba" fill-rule="nonzero" opacity="1" stroke="none"/>
<path d="M681.12 529.493C682.027 528.253 683.017 527.323 684.09 526.702C685.163 526.082 686.32 525.772 687.561 525.772C689.708 525.772 691.461 526.512 692.82 527.991C694.18 529.469 694.86 531.974 694.86 535.504L694.86 547.956C694.86 551.487 694.18 554.003 692.82 555.506C691.461 557.009 689.708 557.76 687.561 557.76C685.605 557.76 684.03 557.211 682.838 556.114C681.645 555.017 680.762 552.965 680.19 549.96C679.856 547.956 679.188 546.406 678.186 545.308C676.23 543.162 673.499 541.444 669.992 540.156C666.486 538.868 662.967 538.224 659.437 538.224C655.048 538.224 651.017 539.178 647.343 541.086C643.67 542.995 640.426 546.096 637.611 550.389C634.796 554.683 633.389 559.788 633.389 565.703L633.389 575.221C633.389 582.282 635.953 588.174 641.081 592.897C646.21 597.62 653.33 599.981 662.443 599.981C667.881 599.981 672.485 599.242 676.254 597.763C678.449 596.904 680.786 595.211 683.267 592.682C684.794 591.155 685.986 590.166 686.845 589.712C687.704 589.259 688.682 589.033 689.779 589.033C691.735 589.033 693.453 589.772 694.932 591.251C696.41 592.73 697.15 594.471 697.15 596.475C697.15 598.479 696.148 600.625 694.144 602.915C691.234 606.255 687.489 608.879 682.909 610.787C676.755 613.363 669.957 614.652 662.514 614.652C653.831 614.652 646.007 612.863 639.042 609.284C633.412 606.422 628.618 601.902 624.658 595.724C620.698 589.545 618.719 582.807 618.719 575.507L618.719 565.56C618.719 557.927 620.496 550.807 624.05 544.199C627.604 537.592 632.53 532.499 638.827 528.921C645.125 525.343 651.804 523.554 658.865 523.554C663.111 523.554 667.082 524.043 670.78 525.021C674.477 525.999 677.924 527.49 681.12 529.493Z" fill="#a208ba" fill-rule="nonzero" opacity="1" stroke="none"/>
<path d="M753.183 540.442L753.183 597.835L763.058 597.835C766.589 597.835 769.105 598.514 770.608 599.874C772.111 601.234 772.862 603.011 772.862 605.205C772.862 607.352 772.111 609.106 770.608 610.465C769.105 611.825 766.589 612.505 763.058 612.505L728.709 612.505C725.178 612.505 722.662 611.825 721.159 610.465C719.656 609.106 718.905 607.328 718.905 605.134C718.905 602.987 719.656 601.234 721.159 599.874C722.662 598.514 725.178 597.835 728.709 597.835L738.513 597.835L738.513 540.442L722.626 540.442L722.626 554.325C722.626 557.856 721.946 560.372 720.586 561.875C719.227 563.378 717.45 564.129 715.255 564.129C713.108 564.129 711.355 563.378 709.995 561.875C708.636 560.372 707.956 557.856 707.956 554.325L707.956 525.701L783.954 525.772L783.954 554.325C783.954 557.856 783.274 560.372 781.915 561.875C780.555 563.378 778.778 564.129 776.583 564.129C774.436 564.129 772.683 563.378 771.324 561.875C769.964 560.372 769.284 557.856 769.284 554.325L769.284 540.442L753.183 540.442Z" fill="#a208ba" fill-rule="nonzero" opacity="1" stroke="none"/>
<g opacity="1">
<path d="M825.309 629.44L867.083 575.085" fill="none" opacity="1" stroke="#4788c7" stroke-linecap="butt" stroke-linejoin="miter" stroke-width="1"/>
<path d="M864.943 637.515C862.684 637.515 860.694 636.329 859.612 634.351C858.531 632.365 858.616 630.048 859.84 628.147L873.745 606.61L879.841 583.321L893.881 596.13L884.213 614.426L869.923 634.913C868.792 636.541 866.929 637.515 864.943 637.515Z" fill="#b6dcfe" fill-rule="nonzero" opacity="1" stroke="none"/>
<path d="M880.896 586.889L891.487 596.549L882.631 613.318L868.353 633.812C867.571 634.924 866.301 635.59 864.943 635.59C862.718 635.59 861.652 634.078 861.298 633.427C860.944 632.777 860.247 631.06 861.456 629.194L875.188 607.911L875.523 607.395L875.677 606.798L880.896 586.889M878.786 579.754L871.959 605.821L858.227 627.104C854.79 632.427 858.612 639.439 864.943 639.439L864.943 639.439C867.56 639.439 870.008 638.161 871.505 636.014L885.918 615.327L896.279 595.714L878.786 579.754L878.786 579.754Z" fill="#4788c7" fill-rule="nonzero" opacity="1" stroke="none"/>
<path d="M933.876 583.633C932.683 583.633 931.536 583.268 930.555 582.583L909.687 566.545L901.867 553.448L907.886 538.608L918.963 558.474L937.209 573.092C939.842 574.997 940.45 578.491 938.676 581.105C937.594 582.686 935.801 583.633 933.876 583.633Z" fill="#b6dcfe" fill-rule="nonzero" opacity="1" stroke="none"/>
<path d="M908.159 543.049L917.096 559.075L917.462 559.733L918.051 560.203L936.155 574.697C937.863 575.932 938.268 578.268 937.082 580.012C936.363 581.078 935.162 581.709 933.876 581.709C933.083 581.709 932.314 581.466 931.794 581.105L911.154 565.24L904.011 553.283L908.159 543.049M907.613 534.162L899.723 553.614L908.225 567.846L929.45 584.157C930.797 585.103 932.345 585.558 933.876 585.558C936.343 585.558 938.768 584.376 940.265 582.182C942.617 578.73 941.797 574.035 938.414 571.587L920.456 557.204L907.613 534.162L907.613 534.162Z" fill="#4788c7" fill-rule="nonzero" opacity="1" stroke="none"/>
<path d="M906.966 495.114C899.527 495.114 893.496 501.145 893.496 508.584C893.496 516.024 899.527 522.055 906.966 522.055C914.406 522.055 920.437 516.024 920.437 508.584C920.437 501.145 914.406 495.114 906.966 495.114Z" fill="#dff0fe" fill-rule="nonzero" opacity="1" stroke="none"/>
<path d="M906.966 497.038C913.332 497.038 918.512 502.219 918.512 508.584C918.512 514.95 913.332 520.13 906.966 520.13C900.601 520.13 895.42 514.95 895.42 508.584C895.42 502.219 900.601 497.038 906.966 497.038M906.966 493.19C898.465 493.19 891.572 500.083 891.572 508.584C891.572 517.086 898.465 523.979 906.966 523.979C915.468 523.979 922.361 517.086 922.361 508.584C922.361 500.083 915.468 493.19 906.966 493.19L906.966 493.19Z" fill="#4788c7" fill-rule="nonzero" opacity="1" stroke="none"/>
<path d="M911.492 637.515C908.783 637.515 906.316 635.813 905.358 633.273L895.259 606.556L879.726 585.327C878.105 582.663 877.709 579.265 878.729 576.14L885.002 556.985L865.851 581.251C864.681 582.771 862.938 583.629 861.044 583.629C859.701 583.629 858.431 583.198 857.369 582.379C854.725 580.35 854.232 576.552 856.26 573.911L887.273 534.763C889.694 531.615 893.481 529.748 897.426 529.748L899.238 529.748C903.264 529.748 906.632 531.291 908.937 534.101C911.6 537.357 912.601 541.879 911.677 546.521L899.458 579.761L917.639 628.674C918.397 630.718 918.12 632.915 916.881 634.701C915.63 636.487 913.667 637.515 911.492 637.515Z" fill="#b6dcfe" fill-rule="nonzero" opacity="1" stroke="none"/>
<path d="M899.446 531.676C902.721 531.676 905.485 532.939 907.444 535.325C909.691 538.065 910.557 541.894 909.838 545.862L897.891 578.43L897.402 579.765L897.899 581.097L915.83 629.344C916.365 630.787 916.169 632.338 915.291 633.6C914.414 634.867 913.028 635.59 911.489 635.59C909.576 635.59 907.832 634.386 907.159 632.596L897.152 606.117L896.968 605.628L896.66 605.205L881.384 584.33C880.03 582.036 879.729 579.28 880.561 576.744L883.463 567.884L890.198 547.306L876.781 564.305L864.312 580.104C863.527 581.124 862.333 581.709 861.044 581.709C860.132 581.709 859.27 581.413 858.543 580.858C857.673 580.189 857.111 579.219 856.968 578.13C856.826 577.04 857.115 575.959 857.75 575.131L888.812 535.917C890.856 533.262 894.073 531.676 897.422 531.676L898.095 531.676L899.234 531.676L899.446 531.676M899.446 527.828L899.234 527.828L898.095 527.828L897.422 527.828C892.853 527.828 888.547 529.952 885.764 533.57L854.736 572.741C852.058 576.228 852.712 581.228 856.199 583.906C857.642 585.019 859.351 585.558 861.044 585.558C863.434 585.558 865.797 584.488 867.364 582.448L879.803 566.688L876.901 575.547C875.708 579.196 876.173 583.187 878.175 586.462L893.554 607.48L903.56 633.958C904.803 637.257 907.963 639.439 911.489 639.439C917.396 639.439 921.495 633.547 919.436 628.004L901.505 579.758L913.559 546.894C915.53 537.03 909.507 527.828 899.446 527.828L899.446 527.828Z" fill="#4788c7" fill-rule="nonzero" opacity="1" stroke="none"/>
<path d="M876.373 558.259L897.633 558.259L897.633 538.458L892.318 538.458L876.373 558.259Z" fill="#b6dcfe" fill-rule="nonzero" opacity="1" stroke="none"/>
<g opacity="1">
<path d="M809.23 625.611C806.928 623.856 805.454 621.312 805.069 618.448C804.684 615.581 805.442 612.741 807.201 610.443L824.767 587.443C826.83 584.742 829.97 583.191 833.376 583.191C835.762 583.191 838.033 583.96 839.934 585.415L852.015 594.64L821.307 634.84L809.23 625.611Z" fill="#98ccfd" fill-rule="nonzero" opacity="1" stroke="none"/>
<path d="M833.38 585.115L833.38 585.115C835.343 585.115 837.206 585.746 838.772 586.943L849.321 595.002L820.949 632.142L810.4 624.083C808.51 622.639 807.298 620.546 806.982 618.19C806.666 615.835 807.286 613.495 808.729 611.605L826.295 588.61C827.996 586.389 830.574 585.115 833.38 585.115M833.38 581.266C829.543 581.266 825.748 582.99 823.239 586.277L805.67 609.273C801.394 614.869 802.467 622.87 808.06 627.142L821.668 637.538L854.713 594.282L841.104 583.887C838.799 582.121 836.078 581.266 833.38 581.266L833.38 581.266Z" fill="#4788c7" fill-rule="nonzero" opacity="1" stroke="none"/>
</g>
<g opacity="1">
<path d="M816.523 622.12C812.272 622.12 808.825 625.566 808.825 629.817C808.825 634.068 812.272 637.515 816.523 637.515C820.774 637.515 824.22 634.068 824.22 629.817C824.22 625.566 820.774 622.12 816.523 622.12Z" fill="#dff0fe" fill-rule="nonzero" opacity="1" stroke="none"/>
<path d="M816.523 624.044C819.706 624.044 822.296 626.634 822.296 629.817C822.296 633 819.706 635.59 816.523 635.59C813.34 635.59 810.75 633 810.75 629.817C810.75 626.634 813.34 624.044 816.523 624.044M816.523 620.196C811.208 620.196 806.901 624.502 806.901 629.817C806.901 635.132 811.208 639.439 816.523 639.439C821.838 639.439 826.144 635.132 826.144 629.817C826.144 624.502 821.838 620.196 816.523 620.196L816.523 620.196Z" fill="#4788c7" fill-rule="nonzero" opacity="1" stroke="none"/>
</g>
</g>
</g>
</svg>
