<?xml version="1.0" encoding="UTF-8" standalone="no"?><!DOCTYPE svg PUBLIC "-//W3C//DTD SVG 1.1//EN" "http://www.w3.org/Graphics/SVG/1.1/DTD/svg11.dtd"><svg width="100%" height="100%" viewBox="0 0 1250 1250" version="1.1" xmlns="http://www.w3.org/2000/svg" xmlns:xlink="http://www.w3.org/1999/xlink" xml:space="preserve" xmlns:serif="http://www.serif.com/" style="fill-rule:evenodd;clip-rule:evenodd;stroke-linejoin:round;stroke-miterlimit:2;"><g><path d="M1250,625c0,4.689 -0.096,9.375 -0.293,13.964c0,0.979 0,2.05 -0.096,3.029c-0.1,6.346 -0.393,12.596 -0.782,18.943c-0.49,11.621 -1.465,23.243 -2.833,34.768c-0.489,4.785 -1.075,9.667 -1.757,14.453c-1.66,11.622 -3.518,23.143 -5.764,34.472c-0,0.196 -0.096,0.292 -0.096,0.489c-0.975,5.078 -2.05,10.157 -3.125,15.232c-1.075,4.593 -2.05,9.086 -3.222,13.675c-30.471,125 -98.636,235.154 -191.603,317.968c-18.943,16.993 -39.061,32.714 -60.058,47.264c-66.21,45.8 -141.796,79.2 -223.242,96.582c-4.004,0.879 -8.008,1.757 -12.011,2.54c-7.618,1.564 -15.432,2.928 -23.243,4.103c-6.154,0.975 -12.5,1.757 -18.75,2.536c-12.207,1.661 -24.611,2.836 -37.107,3.614c-13.579,0.879 -27.247,1.368 -41.018,1.368c-12.5,0 -24.804,-0.389 -37.011,-1.171c-6.935,-0.39 -13.868,-0.879 -20.703,-1.465c-0.393,0 -0.782,-0.1 -1.172,-0.1c-5.175,-0.585 -10.45,-1.071 -15.528,-1.757c-1.172,-0.096 -2.247,-0.293 -3.418,-0.389c-1.368,-0.1 -2.832,-0.293 -4.2,-0.489c-3.318,-0.49 -6.736,-0.975 -10.057,-1.465c-2.247,-0.293 -4.397,-0.585 -6.64,-0.978c-20.51,-3.222 -40.628,-7.518 -60.353,-12.693c-268.066,-70.314 -465.918,-314.257 -465.918,-604.493c-0,-345.215 279.785,-625 625,-625c290.918,-0 535.45,198.731 604.982,467.871c8.397,32.225 14.157,65.429 17.282,99.415c0.979,9.864 1.661,19.921 2.054,29.978c-0,0.782 0.096,1.468 0.096,2.247c0.097,2.443 0.197,4.982 0.197,7.521c0.293,5.957 0.389,12.011 0.389,17.968Z" style="fill:#26888c;fill-rule:nonzero;"/><rect x="-199.391" y="-70.73" width="1507.31" height="1392.1" style="fill:#26888c;"/><path d="M1282.31,1272.92c-18.943,16.993 -755.361,5.175 -775.086,-0l-260.685,-262.811c4.815,3.468 10.73,5.511 17.132,5.511l722.657,0c16.21,0 29.296,-13.086 29.296,-29.296l0,-610.647l-781.25,0l0,610.647l0,-722.657l0,111.985l781.25,0l0,-111.985c0,-4.817 -1.154,-9.357 -3.204,-13.361l269.89,271.665c8.397,32.225 92.968,668.135 0,750.949Zm-1047.93,-286.368l0,-0.007l0,0.007Zm-0,-0.064c-0.001,-0.014 -0.001,-0.029 -0.001,-0.039c0,0.01 0,0.025 0.001,0.039Zm-0.001,-0.079c-0,-0.028 -0,-0.057 -0,-0.085c-0,0.028 -0,0.057 0,0.085Zm0.031,-724.104c0.708,-15.576 13.511,-27.935 29.266,-27.935l722.657,-0c0.028,-0 0.053,-0 0.082,0c-0.029,-0 -0.054,-0 -0.082,-0l-722.657,-0c-15.754,-0 -28.558,12.358 -29.266,27.935Zm752.162,-27.934c-0.011,0 -0.018,0 -0.025,-0c0.007,0 0.018,0 0.025,0Zm-0.064,-0c-0.025,-0.001 -0.047,-0.001 -0.072,-0.001c0.025,0 0.047,0 0.072,0.001Z" style="fill:#0c5450;fill-rule:nonzero;"/><path d="M1015.62,375.657l0,-111.985c0,-16.211 -13.086,-29.297 -29.296,-29.297l-722.657,0c-16.21,0 -29.297,13.086 -29.297,29.297l0,111.985l781.25,0Z" style="fill:#6a8384;fill-rule:nonzero;"/><path d="M319.639,601.616l12.295,0l0,44.579c7.369,2.605 12.296,9.573 12.296,17.389c-0,10.179 -8.265,18.443 -18.444,18.443c-10.179,-0 -18.443,-8.264 -18.443,-18.443c-0,-7.816 4.927,-14.784 12.296,-17.389l-0,-44.579Z" style="fill:#ffc654;"/><path d="M1015.62,375.682l0,610.647c0,16.21 -13.086,29.296 -29.296,29.296l-722.657,-0c-16.21,-0 -29.297,-13.086 -29.297,-29.296l0,-610.647l781.25,0Z" style="fill:#f9fafa;fill-rule:nonzero;"/><path d="M345.238,812.708l19.135,-0.265l0.705,51.027l-51.026,0.705l-0.706,-51.026l19.135,-0.265l-2.78,-201.015l12.757,-0.177l2.78,201.016Z" style="fill:#a4a4a2;"/><path d="M903.373,570.034l-19.137,0l0,-51.031l51.031,0l0,51.031l-19.136,0l-0,201.035l-12.758,0l-0,-201.035Z" style="fill:#a4a4a2;"/><path d="M340.63,306.38c-0,13.83 -11.211,25.041 -25.041,25.041c-13.83,-0 -25.041,-11.211 -25.041,-25.041c0,-13.829 11.211,-25.04 25.041,-25.04c13.83,-0 25.041,11.211 25.041,25.04Z" style="fill:#3c4b59;fill-rule:nonzero;"/><path d="M418.386,306.38c-0,13.83 -11.211,25.041 -25.04,25.041c-13.828,-0 -25.039,-11.211 -25.039,-25.041c0,-13.829 11.211,-25.04 25.039,-25.04c13.829,-0 25.04,11.211 25.04,25.04Z" style="fill:#3c4b59;fill-rule:nonzero;"/><path d="M496.146,306.38c0,13.83 -11.21,25.041 -25.042,25.041c-13.829,-0 -25.04,-11.211 -25.04,-25.041c0,-13.829 11.211,-25.04 25.04,-25.04c13.832,-0 25.042,11.211 25.042,25.04Z" style="fill:#3c4b59;fill-rule:nonzero;"/><path d="M337.903,303.653c-0,13.829 -11.212,25.041 -25.041,25.041c-13.829,-0 -25.041,-11.212 -25.041,-25.041c0,-13.829 11.212,-25.041 25.041,-25.041c13.829,0 25.041,11.212 25.041,25.041Z" style="fill:#ea3849;fill-rule:nonzero;"/><path d="M415.661,303.653c-0,13.829 -11.211,25.041 -25.04,25.041c-13.832,-0 -25.042,-11.212 -25.042,-25.041c-0,-13.829 11.21,-25.041 25.042,-25.041c13.829,0 25.04,11.212 25.04,25.041Z" style="fill:#62bf7a;fill-rule:nonzero;"/><path d="M493.418,303.653c-0,13.829 -11.211,25.041 -25.039,25.041c-13.833,-0 -25.043,-11.212 -25.043,-25.041c-0,-13.829 11.21,-25.041 25.043,-25.041c13.828,0 25.039,11.212 25.039,25.041Z" style="fill:#fed042;fill-rule:nonzero;"/><path d="M296.741,322.866c-1.994,-1.683 -3.718,-3.677 -5.1,-5.912c0.001,0 0.001,0.001 0.001,0.001c1.349,2.146 3.013,4.073 4.929,5.715c0.056,0.066 0.113,0.132 0.17,0.196Zm35.161,-35.484c-0.007,-0.006 -0.015,-0.013 -0.022,-0.019c-0.278,-0.324 -0.564,-0.641 -0.858,-0.951c0.302,0.315 0.595,0.639 0.88,0.97Z" style="fill:#737c86;fill-rule:nonzero;"/><path d="M312.863,328.733c-6.152,0 -11.777,-2.196 -16.122,-5.867c-0.057,-0.064 -0.114,-0.13 -0.17,-0.196c4.379,3.755 10.07,6.024 16.291,6.024c13.829,-0 25.041,-11.212 25.041,-25.041c-0,-6.22 -2.269,-11.911 -6.023,-16.29c0.007,0.006 0.015,0.013 0.022,0.019c3.759,4.368 6.016,10.062 6.016,16.296c-0,13.836 -11.219,25.055 -25.055,25.055Z" style="fill:#515e6b;fill-rule:nonzero;"/><path d="M312.862,328.694c-6.221,-0 -11.912,-2.269 -16.291,-6.024c-1.916,-1.642 -3.58,-3.569 -4.929,-5.715c3.834,2.43 8.414,3.832 13.275,3.832c13.836,0 25.054,-11.218 25.054,-25.055c0,-4.86 -1.402,-9.441 -3.833,-13.276c1.796,1.111 3.435,2.442 4.884,3.956c0.294,0.31 0.58,0.627 0.858,0.951c3.754,4.379 6.023,10.07 6.023,16.29c-0,13.829 -11.212,25.041 -25.041,25.041Z" style="fill:#eb4c5b;fill-rule:nonzero;"/><path d="M374.432,322.79c-1.24,-1.056 -2.371,-2.231 -3.379,-3.51c0.982,1.231 2.083,2.366 3.276,3.391c0.035,0.04 0.067,0.079 0.103,0.119Zm35.318,-35.329c-0.036,-0.033 -0.075,-0.066 -0.111,-0.098c-0.993,-1.157 -2.085,-2.221 -3.271,-3.179c1.228,0.983 2.364,2.081 3.382,3.277Z" style="fill:#737c86;fill-rule:nonzero;"/><path d="M390.646,328.733c-6.196,0 -11.857,-2.227 -16.214,-5.943c-0.036,-0.04 -0.068,-0.079 -0.103,-0.119c4.378,3.754 10.071,6.023 16.292,6.023c13.829,-0 25.04,-11.212 25.04,-25.041c-0,-6.22 -2.268,-11.911 -6.022,-16.29c0.036,0.032 0.075,0.065 0.111,0.098c3.721,4.358 5.95,10.02 5.95,16.217c-0,13.836 -11.218,25.055 -25.054,25.055Z" style="fill:#515e6b;fill-rule:nonzero;"/><path d="M390.621,328.694c-6.221,-0 -11.914,-2.269 -16.292,-6.023c-1.193,-1.025 -2.294,-2.16 -3.276,-3.391c-0.585,-0.741 -1.132,-1.518 -1.632,-2.326c3.836,2.431 8.415,3.833 13.279,3.833c13.836,0 25.054,-11.218 25.054,-25.055c-0,-4.86 -1.404,-9.441 -3.833,-13.276c0.85,0.528 1.668,1.105 2.447,1.728c1.186,0.958 2.278,2.022 3.271,3.179c3.754,4.379 6.022,10.07 6.022,16.29c-0,13.829 -11.211,25.041 -25.04,25.041Z" style="fill:#71c388;fill-rule:nonzero;"/><path d="M452.129,322.719c-0.468,-0.403 -0.918,-0.822 -1.358,-1.259c0.425,0.419 0.865,0.823 1.315,1.21c0.014,0.016 0.028,0.034 0.043,0.049Z" style="fill:#737c86;fill-rule:nonzero;"/><path d="M468.332,328.733c-6.168,0 -11.843,-2.255 -16.203,-6.014c-0.015,-0.015 -0.029,-0.033 -0.043,-0.049c4.378,3.755 10.071,6.024 16.293,6.024c6.771,-0 12.914,-2.687 17.421,-7.054c-4.514,4.39 -10.675,7.093 -17.468,7.093Z" style="fill:#515e6b;fill-rule:nonzero;"/><path d="M468.379,328.694c-6.222,-0 -11.915,-2.269 -16.293,-6.024c-0.45,-0.387 -0.89,-0.791 -1.315,-1.21c-1.353,-1.354 -2.553,-2.865 -3.567,-4.506c3.835,2.431 8.414,3.833 13.275,3.833c13.835,0 24.96,-11.218 24.96,-25.055c0,-4.86 -1.4,-9.441 -3.832,-13.276c7.107,4.395 11.779,12.248 11.779,21.222c-0,7.044 -2.907,13.41 -7.586,17.962c-4.507,4.367 -10.65,7.054 -17.421,7.054Z" style="fill:#ffc654;fill-rule:nonzero;"/><path d="M962.179,304.978c-0,6.397 -2.64,12.185 -6.804,16.449c-4.161,4.163 -9.95,6.803 -16.346,6.803l-348.272,0c-12.796,0 -23.15,-10.458 -23.15,-23.252c0,-6.397 2.539,-12.184 6.804,-16.347c4.16,-4.163 9.95,-6.802 16.346,-6.802l348.272,-0c12.792,-0 23.15,10.356 23.15,23.149Z" style="fill:#093936;fill-rule:nonzero;"/><path d="M804.632,605.993l-145.607,28.186l0,-80.115l145.607,0l0,51.929Z" style="fill:#093936;fill-rule:nonzero;"/><path d="M445.368,605.993l145.607,28.186l-0,-80.115l-145.607,0l-0,51.929Z" style="fill:#093936;fill-rule:nonzero;"/><path d="M804.632,707.511l-145.607,28.185l0,-80.11l145.607,-0l0,51.925Z" style="fill:#093936;fill-rule:nonzero;"/><path d="M445.368,707.511l145.607,28.185l-0,-80.11l-145.607,-0l-0,51.925Z" style="fill:#093936;fill-rule:nonzero;"/><path d="M804.632,809.032l-145.607,28.186l0,-80.114l145.607,-0l0,51.928Z" style="fill:#093936;fill-rule:nonzero;"/><path d="M445.368,809.032l145.607,28.186l-0,-80.114l-145.607,-0l-0,51.928Z" style="fill:#093936;fill-rule:nonzero;"/><path d="M735.314,561.607l-0,268.068c-0,60.936 -49.378,110.314 -110.314,110.314c-60.936,0 -110.314,-49.378 -110.314,-110.314l-0,-268.068c-0,-60.936 49.378,-110.314 110.314,-110.314c30.496,-0 58.061,12.346 78.014,32.3c19.954,19.953 32.3,47.518 32.3,78.014Z" style="fill:#626c78;fill-rule:nonzero;"/><path d="M735.314,561.607l-0,268.068c-0,60.936 -49.378,110.314 -110.314,110.314c-60.936,0 -110.314,-49.378 -110.314,-110.314l-0,-268.068c-0,-60.936 49.378,-110.314 110.314,-110.314c30.496,-0 58.061,12.346 78.014,32.3c19.954,19.953 32.3,47.518 32.3,78.014Z" style="fill:#6a8384;fill-rule:nonzero;"/><path d="M676.704,554.064c-0,28.554 -23.15,51.704 -51.704,51.704c-28.557,-0 -51.704,-23.15 -51.704,-51.704c0,-28.557 23.147,-51.703 51.704,-51.703c28.554,-0 51.704,23.146 51.704,51.703Z" style="fill:#ef4759;fill-rule:nonzero;"/><path d="M676.704,695.639c-0,28.557 -23.15,51.704 -51.704,51.704c-28.557,-0 -51.704,-23.147 -51.704,-51.704c0,-28.553 23.147,-51.703 51.704,-51.703c28.554,-0 51.704,23.15 51.704,51.703Z" style="fill:#f9c780;fill-rule:nonzero;"/><path d="M676.704,837.218c-0,28.553 -23.15,51.703 -51.704,51.703c-28.557,0 -51.704,-23.15 -51.704,-51.703c0,-28.557 23.147,-51.707 51.704,-51.707c28.554,-0 51.704,23.15 51.704,51.707Z" style="fill:#81c145;fill-rule:nonzero;"/><path d="M625.021,605.786c-28.614,-0 -51.757,-23.147 -51.757,-51.761c0,-13.471 5.15,-25.75 13.64,-34.921c-8.45,9.203 -13.608,21.482 -13.608,34.96c0,28.554 23.147,51.704 51.704,51.704c16.821,-0 31.768,-8.036 41.211,-20.475c0.007,-0.004 0.014,-0.011 0.021,-0.018c-9.471,12.504 -24.414,20.511 -41.211,20.511Z" style="fill:#737c86;fill-rule:nonzero;"/><path d="M625,605.768c-28.557,-0 -51.704,-23.15 -51.704,-51.704c0,-13.478 5.158,-25.757 13.608,-34.96c2.096,-2.261 4.392,-4.336 6.867,-6.19c-6.542,8.593 -10.45,19.432 -10.45,31.154c0,28.514 23.143,51.657 51.758,51.657c11.71,0 22.542,-3.9 31.132,-10.432c-9.443,12.439 -24.39,20.475 -41.211,20.475Z" style="fill:#f05a6a;fill-rule:nonzero;"/><path d="M625.021,747.386c-28.614,-0 -51.757,-23.143 -51.757,-51.757c0,-11.904 4.022,-22.879 10.815,-31.597c-6.761,8.739 -10.783,19.704 -10.783,31.607c0,28.557 23.147,51.704 51.704,51.704c16.796,-0 31.721,-8.007 41.164,-20.414c0.022,-0.018 0.047,-0.033 0.068,-0.05c-9.471,12.5 -24.414,20.507 -41.211,20.507Z" style="fill:#737c86;fill-rule:nonzero;"/><path d="M625,747.343c-28.557,-0 -51.704,-23.147 -51.704,-51.704c0,-11.903 4.022,-22.868 10.783,-31.607c2.792,-3.582 6.05,-6.786 9.692,-9.518c-6.542,8.597 -10.45,19.336 -10.45,31.057c0,28.611 23.143,51.758 51.758,51.758c11.689,-0 22.503,-3.886 31.085,-10.4c-9.443,12.407 -24.368,20.414 -41.164,20.414Z" style="fill:#f9cc8d;fill-rule:nonzero;"/><path d="M590.007,875.279c-10.296,-9.447 -16.743,-23 -16.743,-38.05c0,-14.843 6.186,-28.2 16.15,-37.525c-9.928,9.421 -16.118,22.746 -16.118,37.514c0,15.057 6.436,28.611 16.711,38.061Z" style="fill:#737c86;fill-rule:nonzero;"/><path d="M625.021,888.889c-13.514,0 -25.803,-5.16 -35.014,-13.61c-10.275,-9.45 -16.711,-23.004 -16.711,-38.061c0,-14.768 6.19,-28.093 16.118,-37.514c1.443,-1.347 2.961,-2.611 4.554,-3.783c-6.739,8.693 -10.647,19.533 -10.647,31.25c0,28.615 23.143,51.758 51.758,51.758c11.621,-0 22.364,-3.808 30.957,-10.35c-9.472,12.4 -24.315,20.31 -41.015,20.31Z" style="fill:#8fc85a;fill-rule:nonzero;"/><path d="M710.896,729.696c-2.7,0 -4.882,-2.185 -4.882,-4.882l0,-163.207c0,-2.7 2.182,-4.886 4.882,-4.886c2.697,0 4.883,2.186 4.883,4.886l-0,163.207c-0,2.697 -2.186,4.882 -4.883,4.882Z" style="fill:#95abac;fill-rule:nonzero;"/><path d="M685.757,505.743c-1.25,-0 -2.5,-0.475 -3.453,-1.429c-15.286,-15.296 -35.64,-23.721 -57.308,-23.721c-2.696,-0 -4.882,-2.186 -4.882,-4.886c0,-2.696 2.186,-4.882 4.882,-4.882c24.272,0 47.086,9.443 64.211,26.586c1.911,1.907 1.911,5 0,6.903c-0.95,0.954 -2.2,1.429 -3.45,1.429Z" style="fill:#95abac;fill-rule:nonzero;"/><rect x="288.482" y="411.157" width="159.704" height="35.05" style="fill:#dfdfde;fill-rule:nonzero;"/><rect x="288.482" y="466.986" width="159.704" height="35.05" style="fill:#dfdfde;fill-rule:nonzero;"/><rect x="288.482" y="522.814" width="89.261" height="35.054" style="fill:#dfdfde;fill-rule:nonzero;"/><rect x="799.55" y="833.443" width="161.968" height="35.05" style="fill:#dfdfde;fill-rule:nonzero;"/><rect x="799.55" y="889.271" width="161.968" height="35.05" style="fill:#dfdfde;fill-rule:nonzero;"/><rect x="869.989" y="945.1" width="91.529" height="35.054" style="fill:#dfdfde;fill-rule:nonzero;"/></g></svg>