<?xml version="1.0" encoding="UTF-8" standalone="no"?>
<!DOCTYPE svg PUBLIC "-//W3C//DTD SVG 1.1//EN" "http://www.w3.org/Graphics/SVG/1.1/DTD/svg11.dtd">
<!-- Created with Vectornator (http://vectornator.io/) -->
<svg height="100%" stroke-miterlimit="10" style="fill-rule:nonzero;clip-rule:evenodd;stroke-linecap:round;stroke-linejoin:round;" version="1.1" viewBox="0 0 1250 1250" width="100%" xml:space="preserve" xmlns="http://www.w3.org/2000/svg" xmlns:xlink="http://www.w3.org/1999/xlink">
<defs/>
<clipPath id="ArtboardFrame">
<rect height="1250" width="1250" x="0" y="0"/>
</clipPath>
<g clip-path="url(#ArtboardFrame)" id="Ebene-2">
<g opacity="1">
<path d="M1240.3 615.247C1240.3 619.936 1240.21 624.622 1240.01 629.211C1240.01 630.19 1240.01 631.261 1239.91 632.24C1239.81 638.586 1239.52 644.836 1239.13 651.183C1238.64 662.804 1237.67 674.426 1236.3 685.951C1235.81 690.736 1235.22 695.618 1234.54 700.404C1232.88 712.026 1231.02 723.547 1228.78 734.876C1228.78 735.072 1228.68 735.168 1228.68 735.365C1227.71 740.443 1226.63 745.522 1225.56 750.597C1224.48 755.19 1223.51 759.683 1222.33 764.272C1191.86 889.272 1123.7 999.426 1030.73 1082.24C1011.79 1099.23 991.669 1114.95 970.672 1129.5C904.462 1175.3 828.876 1208.7 747.43 1226.09C743.426 1226.97 739.422 1227.84 735.419 1228.63C727.801 1230.19 719.987 1231.55 712.176 1232.73C706.022 1233.7 699.676 1234.49 693.426 1235.27C681.219 1236.93 668.815 1238.1 656.319 1238.88C642.74 1239.76 629.072 1240.25 615.301 1240.25C602.801 1240.25 590.497 1239.86 578.29 1239.08C571.355 1238.69 564.422 1238.2 557.587 1237.61C557.194 1237.61 556.805 1237.51 556.415 1237.51C551.24 1236.93 545.965 1236.44 540.887 1235.75C539.715 1235.66 538.64 1235.46 537.469 1235.37C536.101 1235.27 534.637 1235.07 533.269 1234.88C529.951 1234.39 526.533 1233.9 523.212 1233.41C520.965 1233.12 518.815 1232.83 516.572 1232.43C496.062 1229.21 475.944 1224.92 456.219 1219.74C188.153 1149.43-9.69886 905.483-9.69886 615.247C-9.69886 270.032 270.086-9.75281 615.301-9.75281C906.219-9.75281 1150.75 188.978 1220.28 458.118C1228.68 490.343 1234.44 523.547 1237.57 557.533C1238.54 567.397 1239.23 577.454 1239.62 587.511C1239.62 588.293 1239.72 588.979 1239.72 589.758C1239.81 592.201 1239.91 594.74 1239.91 597.279C1240.21 603.236 1240.3 609.29 1240.3 615.247Z" fill="#26888c" fill-rule="nonzero" opacity="1" stroke="none"/>
<path d="M-209.09-80.4828L1298.22-80.4828L1298.22-80.4828L1298.22 1311.62L1298.22 1311.62L-209.09 1311.62L-209.09 1311.62L-209.09-80.4828L-209.09-80.4828Z" fill="#26888c" fill-rule="evenodd" opacity="1" stroke="none"/>
<path d="M1272.61 1263.17C1253.67 1280.16 517.25 1268.34 497.525 1263.17L236.84 1000.36C241.655 1003.82 247.57 1005.87 253.972 1005.87L976.629 1005.87C992.839 1005.87 1005.93 992.781 1005.93 976.571L1005.93 365.924L224.675 365.924L224.675 976.571L224.675 253.914L224.675 365.899L1005.93 365.899L1005.93 253.914C1005.93 249.097 1004.77 244.557 1002.72 240.553L1272.61 512.218C1281.01 544.443 1365.58 1180.35 1272.61 1263.17ZM224.681 976.799L224.681 976.792L224.681 976.799ZM224.681 976.735C224.68 976.721 224.68 976.706 224.68 976.696C224.68 976.706 224.68 976.721 224.681 976.735ZM224.68 976.656C224.68 976.628 224.68 976.599 224.68 976.571C224.68 976.599 224.68 976.628 224.68 976.656ZM224.711 252.552C225.419 236.976 238.222 224.617 253.977 224.617L976.634 224.617C976.662 224.617 976.687 224.617 976.716 224.617C976.687 224.617 976.662 224.617 976.634 224.617L253.977 224.617C238.223 224.617 225.419 236.975 224.711 252.552ZM976.873 224.618C976.862 224.618 976.855 224.618 976.848 224.618C976.855 224.618 976.866 224.618 976.873 224.618ZM976.809 224.618C976.784 224.617 976.762 224.617 976.737 224.617C976.762 224.617 976.784 224.617 976.809 224.618Z" fill="#0c5450" fill-rule="nonzero" opacity="1" stroke="none"/>
<path d="M1005.92 365.904L1005.92 253.919C1005.92 237.708 992.835 224.622 976.625 224.622L253.968 224.622C237.758 224.622 224.671 237.708 224.671 253.919L224.671 365.904C224.671 365.904 1005.92 365.904 1005.92 365.904Z" fill="#6a8384" fill-rule="nonzero" opacity="1" stroke="none"/>
<path d="M309.94 591.863L322.235 591.863L322.235 636.442C329.604 639.047 334.531 646.015 334.531 653.831C334.531 664.01 326.266 672.274 316.087 672.274C305.908 672.274 297.644 664.01 297.644 653.831C297.644 646.015 302.571 639.047 309.94 636.442C309.94 636.442 309.94 591.863 309.94 591.863Z" fill="#ffc654" fill-rule="evenodd" opacity="1" stroke="none"/>
<path d="M1005.92 365.929L1005.92 976.576C1005.92 992.786 992.835 1005.87 976.625 1005.87L253.968 1005.87C237.758 1005.87 224.671 992.786 224.671 976.576L224.671 365.929C224.671 365.929 1005.92 365.929 1005.92 365.929Z" fill="#f9fafa" fill-rule="nonzero" opacity="1" stroke="none"/>
<path d="M330.931 296.627C330.931 310.457 319.72 321.668 305.89 321.668C292.06 321.668 280.849 310.457 280.849 296.627C280.849 282.798 292.06 271.587 305.89 271.587C319.72 271.587 330.931 282.798 330.931 296.627Z" fill="#3c4b59" fill-rule="nonzero" opacity="1" stroke="none"/>
<path d="M408.687 296.627C408.687 310.457 397.476 321.668 383.647 321.668C369.819 321.668 358.608 310.457 358.608 296.627C358.608 282.798 369.819 271.587 383.647 271.587C397.476 271.587 408.687 282.798 408.687 296.627Z" fill="#3c4b59" fill-rule="nonzero" opacity="1" stroke="none"/>
<path d="M486.447 296.627C486.447 310.457 475.237 321.668 461.405 321.668C447.576 321.668 436.365 310.457 436.365 296.627C436.365 282.798 447.576 271.587 461.405 271.587C475.237 271.587 486.447 282.798 486.447 296.627Z" fill="#3c4b59" fill-rule="nonzero" opacity="1" stroke="none"/>
<path d="M328.204 293.9C328.204 307.729 316.992 318.941 303.163 318.941C289.334 318.941 278.122 307.729 278.122 293.9C278.122 280.071 289.334 268.859 303.163 268.859C316.992 268.859 328.204 280.071 328.204 293.9Z" fill="#ea3849" fill-rule="nonzero" opacity="1" stroke="none"/>
<path d="M405.962 293.9C405.962 307.729 394.751 318.941 380.922 318.941C367.09 318.941 355.88 307.729 355.88 293.9C355.88 280.071 367.09 268.859 380.922 268.859C394.751 268.859 405.962 280.071 405.962 293.9Z" fill="#62bf7a" fill-rule="nonzero" opacity="1" stroke="none"/>
<path d="M483.719 293.9C483.719 307.729 472.508 318.941 458.68 318.941C444.847 318.941 433.637 307.729 433.637 293.9C433.637 280.071 444.847 268.859 458.68 268.859C472.508 268.859 483.719 280.071 483.719 293.9Z" fill="#fed042" fill-rule="nonzero" opacity="1" stroke="none"/>
<path d="M287.042 313.113C285.048 311.43 283.324 309.436 281.942 307.201C281.943 307.201 281.943 307.202 281.943 307.202C283.292 309.348 284.956 311.275 286.872 312.917C286.928 312.983 286.985 313.049 287.042 313.113ZM322.203 277.629C322.196 277.623 322.188 277.616 322.181 277.61C321.903 277.286 321.617 276.969 321.323 276.659C321.625 276.974 321.918 277.298 322.203 277.629Z" fill="#737c86" fill-rule="nonzero" opacity="1" stroke="none"/>
<path d="M303.164 318.98C297.012 318.98 291.387 316.784 287.042 313.113C286.985 313.049 286.928 312.983 286.872 312.917C291.251 316.672 296.942 318.941 303.163 318.941C316.992 318.941 328.204 307.729 328.204 293.9C328.204 287.68 325.935 281.989 322.181 277.61C322.188 277.616 322.196 277.623 322.203 277.629C325.962 281.997 328.219 287.691 328.219 293.925C328.219 307.761 317 318.98 303.164 318.98Z" fill="#515e6b" fill-rule="nonzero" opacity="1" stroke="none"/>
<path d="M303.163 318.941C296.942 318.941 291.251 316.672 286.872 312.917C284.956 311.275 283.292 309.348 281.943 307.202C285.777 309.632 290.357 311.034 295.218 311.034C309.054 311.034 320.272 299.816 320.272 285.979C320.272 281.119 318.87 276.538 316.439 272.703C318.235 273.814 319.874 275.145 321.323 276.659C321.617 276.969 321.903 277.286 322.181 277.61C325.935 281.989 328.204 287.68 328.204 293.9C328.204 307.729 316.992 318.941 303.163 318.941Z" fill="#eb4c5b" fill-rule="nonzero" opacity="1" stroke="none"/>
<path d="M364.733 313.037C363.493 311.981 362.362 310.806 361.354 309.527C362.336 310.758 363.437 311.893 364.63 312.918C364.665 312.958 364.697 312.997 364.733 313.037ZM400.051 277.708C400.015 277.675 399.976 277.642 399.94 277.61C398.947 276.453 397.855 275.389 396.669 274.431C397.897 275.414 399.033 276.512 400.051 277.708Z" fill="#737c86" fill-rule="nonzero" opacity="1" stroke="none"/>
<path d="M380.947 318.98C374.751 318.98 369.09 316.753 364.733 313.037C364.697 312.997 364.665 312.958 364.63 312.918C369.008 316.672 374.701 318.941 380.922 318.941C394.751 318.941 405.962 307.729 405.962 293.9C405.962 287.68 403.694 281.989 399.94 277.61C399.976 277.642 400.015 277.675 400.051 277.708C403.772 282.066 406.001 287.728 406.001 293.925C406.001 307.761 394.783 318.98 380.947 318.98Z" fill="#515e6b" fill-rule="nonzero" opacity="1" stroke="none"/>
<path d="M380.922 318.941C374.701 318.941 369.008 316.672 364.63 312.918C363.437 311.893 362.336 310.758 361.354 309.527C360.769 308.786 360.222 308.009 359.722 307.201C363.558 309.632 368.137 311.034 373.001 311.034C386.837 311.034 398.055 299.816 398.055 285.979C398.055 281.119 396.651 276.538 394.222 272.703C395.072 273.231 395.89 273.808 396.669 274.431C397.855 275.389 398.947 276.453 399.94 277.61C403.694 281.989 405.962 287.68 405.962 293.9C405.962 307.729 394.751 318.941 380.922 318.941Z" fill="#71c388" fill-rule="nonzero" opacity="1" stroke="none"/>
<path d="M442.43 312.966C441.962 312.563 441.512 312.144 441.072 311.707C441.497 312.126 441.937 312.53 442.387 312.917C442.401 312.933 442.415 312.951 442.43 312.966Z" fill="#737c86" fill-rule="nonzero" opacity="1" stroke="none"/>
<path d="M458.633 318.98C452.465 318.98 446.79 316.725 442.43 312.966C442.415 312.951 442.401 312.933 442.387 312.917C446.765 316.672 452.458 318.941 458.68 318.941C465.451 318.941 471.594 316.254 476.101 311.887C471.587 316.277 465.426 318.98 458.633 318.98Z" fill="#515e6b" fill-rule="nonzero" opacity="1" stroke="none"/>
<path d="M458.68 318.941C452.458 318.941 446.765 316.672 442.387 312.917C441.937 312.53 441.497 312.126 441.072 311.707C439.719 310.353 438.519 308.842 437.505 307.201C441.34 309.632 445.919 311.034 450.78 311.034C464.615 311.034 475.74 299.816 475.74 285.979C475.74 281.119 474.34 276.538 471.908 272.703C479.015 277.098 483.687 284.951 483.687 293.925C483.687 300.969 480.78 307.335 476.101 311.887C471.594 316.254 465.451 318.941 458.68 318.941Z" fill="#ffc654" fill-rule="nonzero" opacity="1" stroke="none"/>
<path d="M952.48 295.225C952.48 301.622 949.84 307.41 945.676 311.674C941.515 315.837 935.726 318.477 929.33 318.477L581.058 318.477C568.262 318.477 557.908 308.019 557.908 295.225C557.908 288.828 560.447 283.041 564.712 278.878C568.872 274.715 574.662 272.076 581.058 272.076L929.33 272.076C942.122 272.076 952.48 282.432 952.48 295.225Z" fill="#093936" fill-rule="nonzero" opacity="1" stroke="none"/>
<path d="M615.322 596.033C586.708 596.033 563.565 572.886 563.565 544.272C563.565 530.801 568.715 518.522 577.205 509.351C568.755 518.554 563.597 530.833 563.597 544.311C563.597 572.865 586.744 596.015 615.301 596.015C632.122 596.015 647.069 587.979 656.512 575.54C656.519 575.536 656.526 575.529 656.533 575.522C647.062 588.026 632.119 596.033 615.322 596.033Z" fill="#737c86" fill-rule="nonzero" opacity="1" stroke="none"/>
<path d="M615.322 737.633C586.708 737.633 563.565 714.49 563.565 685.876C563.565 673.972 567.587 662.997 574.38 654.279C567.619 663.018 563.597 673.983 563.597 685.886C563.597 714.443 586.744 737.59 615.301 737.59C632.097 737.59 647.022 729.583 656.465 717.176C656.487 717.158 656.512 717.143 656.533 717.126C647.062 729.626 632.119 737.633 615.322 737.633Z" fill="#737c86" fill-rule="nonzero" opacity="1" stroke="none"/>
<path d="M580.308 865.526C570.012 856.079 563.565 842.526 563.565 827.476C563.565 812.633 569.751 799.276 579.715 789.951C569.787 799.372 563.597 812.697 563.597 827.465C563.597 842.522 570.033 856.076 580.308 865.526Z" fill="#737c86" fill-rule="nonzero" opacity="1" stroke="none"/>
</g>
</g>
<g id="Ebene-1">
<path d="M775.591 955.644L792.687 938.547C797.144 934.102 799.016 927.686 797.651 921.542L735.974 643.949L857.398 522.893C871.185 509.091 878.922 490.376 878.906 470.868L878.906 441.729C878.906 431.576 870.676 423.346 860.523 423.346L831.385 423.346C811.876 423.331 793.161 431.068 779.359 444.855L658.303 566.279L380.71 504.601C374.566 503.236 368.15 505.109 363.706 509.565L346.609 526.662C344.622 528.66 343.661 531.458 344.001 534.255C344.342 537.052 345.947 539.539 348.355 541.001L556.366 667.848L469.136 773.462L380.894 751.861C374.65 750.336 368.063 752.183 363.522 756.733L353.411 766.844C351.375 768.881 350.412 771.756 350.809 774.608C351.206 777.461 352.918 779.963 355.433 781.367L461.782 840.47L520.885 946.819C522.289 949.335 524.791 951.046 527.644 951.443C530.497 951.841 533.371 950.878 535.409 948.842L545.52 938.731C550.069 934.19 551.916 927.602 550.391 921.358L528.79 833.117L634.404 745.886L761.251 953.989C762.73 956.384 765.224 957.97 768.02 958.293C770.816 958.615 773.606 957.639 775.591 955.644Z" fill="#f9fafa" fill-rule="nonzero" opacity="1" stroke="none"/>
<path d="M658.303 566.279L380.71 504.601C374.566 503.236 368.15 505.109 363.706 509.565L346.609 526.662C344.622 528.66 343.661 531.458 344.001 534.255C344.342 537.052 345.947 539.539 348.355 541.001L556.366 667.848L658.303 566.279Z" fill="#dfdfde" fill-rule="nonzero" opacity="1" stroke="none"/>
<path d="M775.591 955.644L792.687 938.547C797.144 934.102 799.016 927.686 797.651 921.542L735.974 643.949L857.398 522.893C871.185 509.091 878.922 490.376 878.906 470.868L878.906 423.346L461.782 840.47L520.885 946.819C522.289 949.335 524.791 951.046 527.644 951.443C530.497 951.841 533.371 950.878 535.409 948.842L545.52 938.731C550.069 934.19 551.916 927.602 550.391 921.358L528.79 833.117L634.404 745.886L761.251 953.989C762.73 956.384 765.224 957.97 768.02 958.293C770.816 958.615 773.606 957.639 775.591 955.644Z" fill="#dfdfde" fill-rule="nonzero" opacity="1" stroke="none"/>
<path d="M546.071 743.129L532.283 756.917C529.66 759.163 528.518 762.69 529.325 766.048C530.133 769.406 532.755 772.027 536.112 772.835C539.47 773.643 542.997 772.5 545.244 769.877L559.031 756.089C562.155 752.442 561.945 747.006 558.549 743.611C555.154 740.216 549.718 740.006 546.071 743.129ZM607.38 681.82C603.733 678.696 598.297 678.906 594.902 682.302C591.507 685.697 591.297 691.133 594.42 694.78L607.38 707.74C611.027 710.864 616.464 710.654 619.859 707.258C623.254 703.863 623.464 698.427 620.341 694.78L607.38 681.82ZM639.919 649.372C636.272 646.249 630.836 646.459 627.441 649.854C624.046 653.25 623.836 658.686 626.959 662.333L639.919 675.293C643.566 678.417 649.003 678.207 652.398 674.811C655.793 671.416 656.003 665.98 652.88 662.333L639.919 649.372ZM672.458 616.833C668.811 613.71 663.375 613.92 659.98 617.315C656.585 620.711 656.375 626.147 659.498 629.794L672.458 642.754C676.105 645.878 681.542 645.668 684.937 642.272C688.332 638.877 688.542 633.441 685.419 629.794L672.458 616.833ZM704.906 584.294C701.259 581.171 695.822 581.381 692.427 584.776C689.032 588.172 688.822 593.608 691.945 597.255L704.906 610.215C708.552 613.339 713.989 613.129 717.384 609.733C720.779 606.338 720.989 600.902 717.866 597.255L704.906 584.294Z" fill="#a4a4a2" fill-rule="nonzero" opacity="1" stroke="none"/>
<path d="M860.523 414.154L831.385 414.154C809.44 414.112 788.39 422.85 772.925 438.42L655.086 556.168L382.549 495.685C373.347 493.654 363.745 496.462 357.087 503.131L340.083 520.228C336.1 524.21 334.163 529.799 334.826 535.392C335.489 540.985 338.68 545.965 343.484 548.906L542.486 670.238L465.735 763.443L383.008 743.221C373.664 740.939 363.807 743.691 356.995 750.482L346.976 760.593C342.905 764.669 340.978 770.417 341.773 776.123C342.567 781.828 345.991 786.832 351.021 789.639L455.072 847.456L512.889 951.507C515.696 956.537 520.7 959.961 526.406 960.755C532.111 961.55 537.86 959.624 541.935 955.552L552.046 945.533C558.837 938.722 561.589 928.864 559.307 919.52L539.085 836.793L632.014 759.766L753.346 958.769C756.29 963.565 761.269 966.749 766.858 967.409L769.064 967.409C773.932 967.389 778.593 965.438 782.025 961.986L799.122 944.889C805.698 938.291 808.499 928.817 806.567 919.704L746.085 647.166L863.832 529.419C879.425 513.932 888.165 492.844 888.098 470.868L888.098 441.729C888.098 426.5 875.752 414.154 860.523 414.154ZM869.715 470.868C869.838 488.092 863.051 504.647 850.871 516.827L729.448 637.791C727.235 640.003 726.3 643.19 726.966 646.247L788.551 923.564C789.217 926.622 788.282 929.808 786.069 932.021L768.605 949.209L645.526 746.989L673.102 719.414C676.225 715.767 676.015 710.331 672.62 706.936C669.225 703.54 663.788 703.33 660.141 706.454L627.97 738.625L522.908 826.039C520.235 828.279 519.06 831.84 519.874 835.231L541.475 923.472C542.267 926.601 541.359 929.915 539.085 932.204L528.974 942.224L473.18 842.033L517.668 797.544C520.792 793.897 520.582 788.461 517.186 785.066C513.791 781.671 508.355 781.461 504.708 784.584L460.22 829.072L359.937 773.278L370.048 763.443C372.318 761.201 375.588 760.296 378.688 761.053L466.93 782.654C470.321 783.468 473.881 782.294 476.121 779.62L563.076 674.374L590.1 647.35C593.223 643.703 593.013 638.267 589.618 634.872C586.223 631.477 580.786 631.267 577.139 634.39L554.895 656.634L353.043 533.648L370.14 516.551C372.352 514.338 375.539 513.403 378.596 514.069L655.913 575.654C658.971 576.32 662.157 575.385 664.37 573.172L785.885 451.381C798.065 439.201 814.62 432.414 831.844 432.538L860.523 432.538C865.599 432.538 869.715 436.653 869.715 441.729L869.715 470.868Z" fill="#a4a4a2" fill-rule="nonzero" opacity="1" stroke="none"/>
</g>
</svg>
